<svg width="84" height="84" viewBox="0 0 84 84" fill="none" xmlns="http://www.w3.org/2000/svg">
<rect width="83.2138" height="83.2138" rx="8.6354" fill="#EFAC3F"/>
<mask id="mask0_5_149" style="mask-type:alpha" maskUnits="userSpaceOnUse" x="18" y="18" width="46" height="46">
<rect x="18.708" y="18.708" width="45.158" height="45.158" fill="#D9D9D9"/>
</mask>
<g mask="url(#mask0_5_149)">
<path d="M52.3411 46.9318V44.1094H56.8099C57.2175 44.1094 57.5546 44.2427 57.8212 44.5093C58.0878 44.7758 58.221 45.1129 58.221 45.5206C58.221 45.8969 58.0878 46.2262 57.8212 46.5084C57.5546 46.7907 57.2175 46.9318 56.8099 46.9318H52.3411ZM52.3411 54.4581V51.6357H56.8099C57.2175 51.6357 57.5546 51.769 57.8212 52.0356C58.0878 52.3021 58.221 52.6393 58.221 53.0469C58.221 53.4233 58.0878 53.7525 57.8212 54.0348C57.5546 54.317 57.2175 54.4581 56.8099 54.4581H52.3411ZM45.05 56.3397C44.1405 56.3397 43.3644 55.9712 42.7215 55.2343C42.0786 54.4973 41.7572 53.6114 41.7572 52.5765H37.2884V45.991H41.7572C41.7572 44.9561 42.0786 44.0702 42.7215 43.3333C43.3644 42.5963 44.1405 42.2278 45.05 42.2278H50.9299V56.3397H45.05ZM31.6437 50.695C29.5426 50.695 27.8021 50.0129 26.4223 48.6487C25.0425 47.2846 24.3525 45.5363 24.3525 43.4038C24.3525 41.2714 25.0425 39.5231 26.4223 38.1589C27.8021 36.7948 29.5426 36.1127 31.6437 36.1127H34.7012C35.7361 36.1127 36.5828 35.7834 37.2414 35.1249C37.8999 34.4663 38.2292 33.6196 38.2292 32.5847C38.2292 31.5498 37.8999 30.7031 37.2414 30.0446C36.5828 29.386 35.7361 29.0567 34.7012 29.0567H27.6453C27.269 29.0567 26.9397 28.9156 26.6575 28.6334C26.3752 28.3512 26.2341 28.0219 26.2341 27.6456C26.2341 27.2379 26.3752 26.9008 26.6575 26.6342C26.9397 26.3677 27.269 26.2344 27.6453 26.2344H34.7012C36.5201 26.2344 38.0332 26.838 39.2406 28.0454C40.4479 29.2527 41.0516 30.7659 41.0516 32.5847C41.0516 34.4036 40.4479 35.9167 39.2406 37.124C38.0332 38.3314 36.5201 38.9351 34.7012 38.9351H31.6437C30.3266 38.9351 29.2525 39.3427 28.4215 40.1581C27.5904 40.9734 27.1749 42.0554 27.1749 43.4038C27.1749 44.7523 27.5904 45.8342 28.4215 46.6496C29.2525 47.4649 30.3266 47.8726 31.6437 47.8726H35.8772V50.695H31.6437Z" fill="white"/>
</g>
</svg>
