<svg width="84" height="84" viewBox="0 0 84 84" fill="none" xmlns="http://www.w3.org/2000/svg">
<rect width="83.2138" height="83.2138" rx="8.6354" fill="#EFAC3F"/>
<path d="M41.5795 58.5145C36.844 58.5145 32.8376 57.7854 29.5604 56.3271C26.2831 54.8688 24.6445 53.0891 24.6445 50.9879V32.1712C24.6445 30.1014 26.2988 28.3295 29.6074 26.8555C32.916 25.3815 36.9067 24.6445 41.5795 24.6445C46.2523 24.6445 50.243 25.3815 53.5516 26.8555C56.8602 28.3295 58.5145 30.1014 58.5145 32.1712V50.9879C58.5145 53.0891 56.8759 54.8688 53.5987 56.3271C50.3214 57.7854 46.3151 58.5145 41.5795 58.5145ZM41.5795 35.9816C44.3707 35.9816 47.1775 35.5817 50 34.782C52.8225 33.9823 54.4062 33.1277 54.7512 32.2182C54.4062 31.3088 52.8303 30.4463 50.0235 29.6309C47.2167 28.8156 44.402 28.4079 41.5795 28.4079C38.7257 28.4079 35.9267 28.8077 33.1826 29.6074C30.4385 30.4071 28.8469 31.2774 28.4079 32.2182C28.8469 33.1591 30.4385 34.0215 33.1826 34.8055C35.9267 35.5896 38.7257 35.9816 41.5795 35.9816ZM41.5795 45.3429C42.8967 45.3429 44.1668 45.2801 45.3899 45.1547C46.613 45.0293 47.7812 44.8489 48.8945 44.6137C50.0078 44.3785 51.0584 44.0884 52.0463 43.7434C53.0342 43.3985 53.9358 43.0065 54.7512 42.5674V36.9224C53.9358 37.3615 53.0342 37.7535 52.0463 38.0984C51.0584 38.4434 50.0078 38.7335 48.8945 38.9687C47.7812 39.2039 46.613 39.3843 45.3899 39.5097C44.1668 39.6351 42.8967 39.6979 41.5795 39.6979C40.2624 39.6979 38.9766 39.6351 37.7221 39.5097C36.4677 39.3843 35.2838 39.2039 34.1705 38.9687C33.0571 38.7335 32.0144 38.4434 31.0422 38.0984C30.07 37.7535 29.1919 37.3615 28.4079 36.9224V42.5674C29.1919 43.0065 30.07 43.3985 31.0422 43.7434C32.0144 44.0884 33.0571 44.3785 34.1705 44.6137C35.2838 44.8489 36.4677 45.0293 37.7221 45.1547C38.9766 45.2801 40.2624 45.3429 41.5795 45.3429ZM41.5795 54.7512C43.0221 54.7512 44.4883 54.6414 45.9779 54.4219C47.4676 54.2024 48.8396 53.9123 50.0941 53.5516C51.3485 53.191 52.3991 52.7833 53.2459 52.3286C54.0926 51.8738 54.5944 51.4112 54.7512 50.9408V46.3307C53.9358 46.7698 53.0342 47.1618 52.0463 47.5068C51.0584 47.8518 50.0078 48.1418 48.8945 48.3771C47.7812 48.6123 46.613 48.7926 45.3899 48.918C44.1668 49.0435 42.8967 49.1062 41.5795 49.1062C40.2624 49.1062 38.9766 49.0435 37.7221 48.918C36.4677 48.7926 35.2838 48.6123 34.1705 48.3771C33.0571 48.1418 32.0144 47.8518 31.0422 47.5068C30.07 47.1618 29.1919 46.7698 28.4079 46.3307V50.9879C28.5647 51.4583 29.0586 51.913 29.8897 52.3521C30.7207 52.7911 31.7635 53.191 33.0179 53.5516C34.2724 53.9123 35.6523 54.2024 37.1576 54.4219C38.6629 54.6414 40.1369 54.7512 41.5795 54.7512Z" fill="white"/>
</svg>
