<svg width="247" height="98" viewBox="0 0 247 98" fill="none" xmlns="http://www.w3.org/2000/svg">
<path d="M53.3522 82.2646L3.64783 82.2646C3.04256 82.2646 2.39301 81.9116 1.85447 81.1347C1.31847 80.3613 0.95639 79.2412 0.95639 77.958L0.956384 6.24653C0.956384 4.96336 1.31846 3.84319 1.85446 3.06988C2.393 2.2929 3.04255 1.93997 3.64783 1.93997L53.3522 1.93996C53.9574 1.93996 54.607 2.29289 55.1455 3.06988C55.6815 3.84319 56.0436 4.96336 56.0436 6.24653L56.0436 77.958C56.0436 79.2412 55.6815 80.3613 55.1455 81.1347C54.607 81.9116 53.9575 82.2646 53.3522 82.2646Z" stroke="white" stroke-width="1.91277"/>
<path d="M6.34588 6.73985L50.6537 6.73985C51.9527 6.73985 53.0098 8.26496 53.0098 10.139L53.0098 74.0647C53.0098 75.9388 51.9527 77.4639 50.6537 77.4639L6.34589 77.4639C5.04693 77.4639 3.98985 75.9388 3.98985 74.0647L3.98985 10.1391C3.98985 8.26497 5.04693 6.73985 6.34588 6.73985ZM50.6537 75.8198C51.3238 75.8198 51.8703 75.034 51.8703 74.0647L51.8703 10.139C51.8703 9.17227 51.3256 8.38387 50.6537 8.38387L6.34588 8.38387C5.6758 8.38387 5.12934 9.16969 5.12934 10.139L5.12935 74.0647C5.12935 75.0314 5.67401 75.8198 6.34589 75.8198L50.6537 75.8198Z" fill="white"/>
<path d="M6.34574 8.38755L50.6554 8.38755C51.3255 8.38755 51.8701 9.17337 51.8701 10.1401L51.8701 9.48098C51.8701 8.51421 51.3255 7.72839 50.6554 7.72839L6.34574 7.72839C5.67566 7.72839 5.13099 8.51422 5.13099 9.48098L5.13099 10.1401C5.13099 9.17337 5.67566 8.38755 6.34574 8.38755Z" fill="white"/>
<mask id="mask0_5_1053" style="mask-type:alpha" maskUnits="userSpaceOnUse" x="12" y="44" width="33" height="27">
<rect x="44.2793" y="70.146" width="31.5333" height="25.2625" transform="rotate(180 44.2793 70.146)" fill="#AAB0BB"/>
</mask>
<g mask="url(#mask0_5_1053)">
<ellipse cx="28.5127" cy="57.5139" rx="15.7666" ry="19.521" transform="rotate(180 28.5127 57.5139)" fill="white"/>
</g>
<path d="M34.7009 65.4866L36.6215 65.4866C36.7917 65.4866 36.9297 65.3486 36.9297 65.1784L36.9297 59.4003C36.9297 59.2301 36.7917 59.0921 36.6215 59.0921L34.7009 59.0921C34.5307 59.0921 34.3927 59.2301 34.3927 59.4003L34.3927 65.1784C34.3927 65.3486 34.5307 65.4866 34.7009 65.4866Z" fill="#131111"/>
<path d="M34.3909 59.6699L34.3909 59.401C34.3909 59.2307 34.529 59.0926 34.7011 59.0926L36.6213 59.0926C36.7916 59.0926 36.9297 59.2307 36.9297 59.401L36.9297 59.6699C36.9297 59.4978 36.7916 59.3597 36.6213 59.3597L34.7011 59.3597C34.529 59.3597 34.3909 59.4978 34.3909 59.6699Z" fill="#131111"/>
<path d="M20.5095 65.4866L22.4301 65.4866C22.6003 65.4866 22.7383 65.3486 22.7383 65.1784L22.7383 59.4003C22.7383 59.2301 22.6003 59.0921 22.4301 59.0921L20.5095 59.0921C20.3393 59.0921 20.2013 59.2301 20.2013 59.4003L20.2013 65.1784C20.2013 65.3486 20.3393 65.4866 20.5095 65.4866Z" fill="#131111"/>
<path d="M20.1956 59.6699L20.1956 59.401C20.1956 59.2307 20.3337 59.0926 20.5058 59.0926L22.426 59.0926C22.5963 59.0926 22.7344 59.2307 22.7344 59.401L22.7344 59.6699C22.7344 59.4978 22.5963 59.3597 22.426 59.3597L20.5058 59.3597C20.3337 59.3597 20.1956 59.4978 20.1956 59.6699Z" fill="#131111"/>
<path d="M28.4198 53.4866C29.7295 53.5672 30.8135 52.5298 30.8135 51.2398L30.8135 49.9731C30.8135 49.8083 30.6809 49.6757 30.5161 49.6757L26.6138 49.6757C26.449 49.6757 26.3164 49.8083 26.3164 49.9731L26.3164 51.1664C26.3164 52.365 27.223 53.4113 28.4216 53.4848L28.4198 53.4866Z" fill="#131111"/>
<path d="M26.3146 50.2893L26.3146 49.974C26.3146 49.8091 26.449 49.6784 26.6138 49.6784L30.5143 49.6784C30.6791 49.6784 30.8135 49.8109 30.8135 49.974L30.8135 50.2893C30.8135 50.1245 30.6791 49.9901 30.5143 49.9901L26.6138 49.9901C26.449 49.9901 26.3146 50.1245 26.3146 50.2893Z" fill="#131111"/>
<mask id="mask1_5_1053" style="mask-type:alpha" maskUnits="userSpaceOnUse" x="12" y="13" width="33" height="26">
<rect x="44.2793" y="38.4304" width="31.5333" height="25.2625" transform="rotate(180 44.2793 38.4304)" fill="#AAB0BB"/>
</mask>
<g mask="url(#mask1_5_1053)">
<ellipse cx="28.5127" cy="25.7983" rx="15.7666" ry="19.521" transform="rotate(180 28.5127 25.7983)" fill="white"/>
</g>
<path d="M34.7009 33.7739L36.6215 33.7739C36.7917 33.7739 36.9297 33.636 36.9297 33.4658L36.9297 27.6876C36.9297 27.5174 36.7917 27.3795 36.6215 27.3795L34.7009 27.3795C34.5307 27.3795 34.3927 27.5174 34.3927 27.6876L34.3927 33.4658C34.3927 33.636 34.5307 33.7739 34.7009 33.7739Z" fill="#131111"/>
<path d="M34.3909 27.9573L34.3909 27.6883C34.3909 27.518 34.529 27.38 34.7011 27.38L36.6213 27.38C36.7916 27.38 36.9297 27.518 36.9297 27.6883L36.9297 27.9573C36.9297 27.7852 36.7916 27.6471 36.6213 27.6471L34.7011 27.6471C34.529 27.6471 34.3909 27.7852 34.3909 27.9573Z" fill="#131111"/>
<path d="M20.5095 33.7739L22.4301 33.7739C22.6003 33.7739 22.7383 33.636 22.7383 33.4658L22.7383 27.6876C22.7383 27.5174 22.6003 27.3795 22.4301 27.3795L20.5095 27.3795C20.3393 27.3795 20.2013 27.5174 20.2013 27.6876L20.2013 33.4658C20.2013 33.636 20.3393 33.7739 20.5095 33.7739Z" fill="#131111"/>
<path d="M20.1956 27.9573L20.1956 27.6883C20.1956 27.518 20.3337 27.38 20.5058 27.38L22.426 27.38C22.5963 27.38 22.7344 27.518 22.7344 27.6883L22.7344 27.9573C22.7344 27.7852 22.5963 27.6471 22.426 27.6471L20.5058 27.6471C20.3337 27.6471 20.1956 27.7852 20.1956 27.9573Z" fill="#131111"/>
<path d="M28.4198 21.7739C29.7295 21.8545 30.8135 20.8172 30.8135 19.5272L30.8135 18.2605C30.8135 18.0956 30.6809 17.963 30.5161 17.963L26.6138 17.963C26.449 17.963 26.3164 18.0956 26.3164 18.2605L26.3164 19.4537C26.3164 20.6523 27.223 21.6987 28.4216 21.7721L28.4198 21.7739Z" fill="#131111"/>
<path d="M26.3146 18.5767L26.3146 18.2613C26.3146 18.0965 26.449 17.9657 26.6138 17.9657L30.5143 17.9657C30.6791 17.9657 30.8135 18.0983 30.8135 18.2613L30.8135 18.5767C30.8135 18.4118 30.6791 18.2775 30.5143 18.2775L26.6138 18.2775C26.449 18.2775 26.3146 18.4118 26.3146 18.5767Z" fill="#131111"/>
<path d="M28.8886 47.0297C33.7815 46.9198 35.2894 51.2966 37.605 56.0339C39.6645 60.2471 41.1767 66.9684 41.7466 69.7445C41.8815 70.4017 41.3772 71.0073 40.7063 71.0073L17.1431 71.0073C16.4487 71.0073 15.9381 70.3634 16.1099 69.6906C16.8226 66.9003 18.6067 60.2985 20.5554 56.0339C22.4878 51.8049 24.0986 47.1372 28.8886 47.0297Z" fill="#131111"/>
<mask id="mask2_5_1053" style="mask-type:alpha" maskUnits="userSpaceOnUse" x="13" y="70" width="32" height="28">
<rect x="44.6338" y="97.0164" width="31.2928" height="26.6192" transform="rotate(180 44.6338 97.0164)" fill="#D9D9D9"/>
</mask>
<g mask="url(#mask2_5_1053)">
<mask id="path-22-outside-1_5_1053" maskUnits="userSpaceOnUse" x="12.293" y="44.6033" width="34" height="52" fill="black">
<rect fill="white" x="12.293" y="44.6033" width="34" height="52"/>
<path d="M43.197 58.8821L41.9178 58.8821L41.9178 52.4578C41.8346 52.3359 41.7501 52.2151 41.6634 52.0967C41.661 52.0932 41.6575 52.0885 41.6552 52.085C41.5813 51.983 41.457 51.8176 41.3796 51.7168C41.3714 51.7051 41.362 51.6945 41.3538 51.6828C41.0771 51.3252 40.784 50.9805 40.478 50.6475C40.4627 50.6311 40.4475 50.6146 40.4322 50.5982C40.3443 50.5032 40.254 50.4094 40.1637 50.3168C40.1485 50.3016 40.1344 50.2863 40.1192 50.2711C39.8038 49.951 39.4755 49.645 39.1331 49.353C39.1155 49.3378 39.0979 49.3237 39.0803 49.3084C38.983 49.2264 38.8857 49.1455 38.786 49.0657C38.7649 49.0481 38.7438 49.0317 38.7215 49.0141C38.6125 48.9274 38.5023 48.8418 38.392 48.7574C38.3862 48.7527 38.3803 48.7492 38.3756 48.7445C38.2525 48.6518 38.127 48.5604 38.0004 48.4713C38.0004 48.4713 37.9992 48.4713 37.9981 48.4701C37.8808 48.3868 37.7612 48.3059 37.6416 48.225C37.6193 48.2098 37.5971 48.1957 37.5748 48.1816C37.4798 48.1195 37.3848 48.0574 37.2875 47.9964C37.2512 47.9741 37.216 47.9507 37.1796 47.9284C37.0706 47.8615 36.9616 47.7947 36.8502 47.7302C36.8338 47.7208 36.8185 47.7115 36.8021 47.7021C36.6708 47.6259 36.5383 47.552 36.4046 47.4793C36.3999 47.477 36.3952 47.4746 36.3894 47.4711C36.2663 47.4043 36.1431 47.3409 36.0177 47.2776C35.9895 47.2636 35.9614 47.2495 35.9333 47.2354C35.8289 47.1838 35.7234 47.1322 35.6178 47.083C35.5815 47.0654 35.544 47.049 35.5076 47.0314C35.3998 46.9822 35.2919 46.9341 35.184 46.8872C35.157 46.8755 35.1312 46.8637 35.1043 46.852C34.9671 46.7934 34.8276 46.7359 34.688 46.6808C34.6798 46.6773 34.6704 46.6738 34.6622 46.6714C34.5344 46.6222 34.4066 46.5741 34.2776 46.5272C34.239 46.5131 34.1991 46.4991 34.1604 46.4862C34.0596 46.451 33.9575 46.4158 33.8555 46.383C33.8122 46.3689 33.7676 46.3549 33.7242 46.3408C33.6187 46.3068 33.512 46.2751 33.4053 46.2435C33.3689 46.2329 33.3338 46.2212 33.2974 46.2118C33.1544 46.1708 33.0101 46.1309 32.8659 46.0946C32.8554 46.0922 32.8448 46.0899 32.8331 46.0863C32.7006 46.0523 32.5681 46.0207 32.4344 45.9902C32.3899 45.9796 32.3453 45.9714 32.3008 45.9609C32.1988 45.9386 32.0956 45.9175 31.9924 45.8976C31.9432 45.8882 31.8939 45.8788 31.8447 45.8694C31.7391 45.8495 31.6336 45.8319 31.5281 45.8143C31.4847 45.8073 31.4413 45.7991 31.3979 45.7932C31.2502 45.7698 31.1013 45.7487 30.9512 45.7299C30.943 45.7299 30.9336 45.7276 30.9254 45.7264C30.7847 45.7088 30.644 45.6936 30.5021 45.6795C30.454 45.6748 30.4071 45.6713 30.3591 45.6666C30.2547 45.6572 30.1492 45.649 30.0437 45.642C29.9909 45.6384 29.937 45.6349 29.8842 45.6314C29.7775 45.6255 29.672 45.6209 29.5653 45.6162C29.5172 45.6138 29.4703 45.6126 29.4222 45.6103C29.2686 45.6056 29.1162 45.6033 28.9614 45.6033C28.8078 45.6033 28.6542 45.6056 28.5006 45.6103C28.4525 45.6115 28.4045 45.6138 28.3576 45.6162C28.2509 45.6197 28.1442 45.6255 28.0386 45.6314C27.9859 45.6349 27.9319 45.6384 27.8792 45.642C27.7737 45.649 27.6693 45.6572 27.5638 45.6666C27.5157 45.6713 27.4688 45.6748 27.4207 45.6795C27.2788 45.6936 27.1381 45.7088 26.9974 45.7264C26.9892 45.7264 26.9799 45.7287 26.9716 45.7299C26.8216 45.7487 26.6738 45.7709 26.5249 45.7932C26.4815 45.8003 26.4381 45.8073 26.3948 45.8143C26.2892 45.8319 26.1837 45.8507 26.0782 45.8694C26.0289 45.8788 25.9797 45.8882 25.9304 45.8976C25.8273 45.9175 25.7241 45.9386 25.6221 45.9609C25.5775 45.9703 25.533 45.9796 25.4884 45.9902C25.3547 46.0207 25.2222 46.0523 25.0897 46.0863C25.0792 46.0887 25.0686 46.091 25.0569 46.0946C24.9127 46.1321 24.7685 46.1708 24.6254 46.2118C24.5891 46.2224 24.5539 46.2329 24.5175 46.2435C24.4108 46.2751 24.3041 46.308 24.1986 46.3408C24.1552 46.3549 24.1107 46.3689 24.0673 46.383C23.9653 46.417 23.8633 46.451 23.7624 46.4862C23.7238 46.5003 23.6839 46.5131 23.6452 46.5272C23.5162 46.5741 23.3884 46.621 23.2606 46.6714C23.2524 46.675 23.243 46.6785 23.2348 46.6808C23.0953 46.7359 22.9569 46.7934 22.8186 46.852C22.7916 46.8637 22.7658 46.8755 22.7388 46.8872C22.6298 46.9341 22.5219 46.9822 22.4152 47.0314C22.3765 47.049 22.339 47.0666 22.3003 47.0853C22.196 47.1346 22.0928 47.185 21.9896 47.2354C21.9614 47.2495 21.9333 47.2636 21.9052 47.2776C21.7809 47.341 21.6566 47.4054 21.5335 47.4711C21.5288 47.4734 21.5241 47.4758 21.5182 47.4793C21.3846 47.552 21.2521 47.6259 21.1207 47.7021C21.1043 47.7115 21.0891 47.7209 21.0727 47.7302C20.9625 47.7947 20.8522 47.8604 20.7432 47.9284C20.7068 47.9507 20.6717 47.9729 20.6353 47.9964C20.5392 48.0562 20.443 48.1183 20.3481 48.1817C20.3258 48.1957 20.3035 48.211 20.2812 48.225C20.1616 48.3048 20.042 48.3868 19.9248 48.4701C19.9248 48.4701 19.9236 48.4701 19.9224 48.4713C19.7958 48.5604 19.6715 48.6518 19.5472 48.7445C19.5414 48.7492 19.5355 48.7527 19.5308 48.7574C19.4194 48.8418 19.3092 48.9274 19.2013 49.0141C19.1849 49.0282 19.1673 49.0411 19.1509 49.0552C19.0477 49.1384 18.9445 49.2229 18.8437 49.3084C18.8261 49.3237 18.8085 49.3378 18.7909 49.353C18.4497 49.645 18.1203 49.951 17.8048 50.2711C17.7884 50.2875 17.772 50.3051 17.7544 50.3227C17.6653 50.4141 17.5762 50.5068 17.4894 50.6006C17.4742 50.6158 17.4601 50.6322 17.4449 50.6486C17.1389 50.9805 16.8457 51.3264 16.569 51.684C16.5444 51.7156 16.5209 51.7473 16.4963 51.7778C16.426 51.8622 16.3638 51.9525 16.3005 52.0416C16.2876 52.0604 16.2735 52.0791 16.2595 52.0979C16.1727 52.2175 16.0883 52.3371 16.005 52.459L16.005 58.8833L14.7258 58.8833C13.9883 58.8833 13.3797 59.4567 13.3293 60.1918C13.3047 60.5483 13.293 60.9071 13.293 61.2694C13.293 61.6317 13.3047 61.9905 13.3293 62.3469C13.3797 63.0833 13.9883 63.6555 14.7258 63.6555L16.005 63.6555L16.005 70.0797C16.0883 70.2017 16.1727 70.3213 16.2595 70.4409C16.2724 70.4596 16.2864 70.4772 16.2993 70.496C16.3779 70.6038 16.4588 70.7105 16.5397 70.8172C16.5491 70.8301 16.5596 70.843 16.569 70.8548C16.8457 71.2124 17.1389 71.5571 17.4449 71.8901C17.4601 71.9065 17.4765 71.9241 17.4918 71.9405C17.5821 72.0378 17.6747 72.134 17.7673 72.229C17.7802 72.2419 17.792 72.2548 17.8048 72.2677C18.1203 72.5878 18.4486 72.8938 18.7909 73.1857C18.8132 73.2045 18.8355 73.2233 18.8578 73.242C18.9469 73.3171 19.0372 73.3921 19.1286 73.4648C19.1533 73.4847 19.1779 73.5047 19.2025 73.5246C19.3115 73.6114 19.4218 73.697 19.532 73.7814C19.5378 73.7861 19.5437 73.7896 19.5484 73.7943C19.6715 73.8869 19.797 73.9784 19.9236 74.0675C19.9236 74.0675 19.9248 74.0675 19.9259 74.0687C20.0432 74.1519 20.1628 74.2328 20.2824 74.3137C20.3047 74.3278 20.327 74.343 20.3481 74.3571C20.443 74.4192 20.538 74.4814 20.633 74.5412C20.6693 74.5646 20.7057 74.5869 20.7432 74.6104C20.8522 74.6772 20.9613 74.7429 21.0727 74.8073C21.0891 74.8167 21.1043 74.8261 21.1207 74.8355C21.2521 74.9117 21.3846 74.9856 21.5182 75.0583C21.5229 75.0606 21.5276 75.063 21.5323 75.0653C21.6554 75.1321 21.7797 75.1966 21.9052 75.2599C21.9321 75.274 21.9603 75.2869 21.9884 75.301C22.0951 75.3537 22.203 75.4065 22.3109 75.4569C22.346 75.4733 22.3812 75.4898 22.4164 75.5062C22.5231 75.5554 22.6321 75.6035 22.74 75.6504C22.767 75.6621 22.7928 75.6738 22.8197 75.6856C22.9569 75.7442 23.0965 75.8016 23.236 75.8568C23.2442 75.8603 23.2536 75.8638 23.2618 75.8661C23.3896 75.9154 23.5174 75.9635 23.6464 76.0104C23.6851 76.0244 23.7249 76.0385 23.7636 76.0514L23.766 76.0514C23.8774 76.0901 23.9653 76.1769 24.0063 76.2882C24.1154 76.5896 24.2702 76.8745 24.4648 77.1336L24.9772 77.8149C25.3055 78.2522 25.4837 78.7846 25.4837 79.3321L25.4837 93.7847C25.4825 94.5574 26.1087 95.1847 26.8825 95.1847L31.0438 95.1847C31.8165 95.1847 32.4438 94.5585 32.4438 93.7847L32.4438 79.3321C32.4438 78.7846 32.622 78.2522 32.9504 77.8149L33.4627 77.1336C33.6574 76.8745 33.811 76.5896 33.92 76.2894C33.9611 76.178 34.049 76.0913 34.1604 76.0526L34.1627 76.0526C34.2014 76.0385 34.2413 76.0244 34.28 76.0104C34.409 75.9635 34.5368 75.9166 34.6646 75.8661C34.6728 75.8626 34.6822 75.8591 34.6904 75.8568C34.8299 75.8016 34.9683 75.7442 35.1066 75.6856C35.1336 75.6738 35.1594 75.6621 35.1864 75.6504C35.2954 75.6035 35.4033 75.5554 35.51 75.5062C35.5452 75.4898 35.5803 75.4733 35.6143 75.4569C35.7222 75.4065 35.8289 75.3537 35.9368 75.301C35.9649 75.2869 35.9919 75.274 36.02 75.2599C36.1455 75.1966 36.2698 75.1321 36.3929 75.0653C36.3976 75.063 36.4023 75.0606 36.407 75.0583C36.5406 74.9856 36.6731 74.9117 36.8044 74.8355C36.8209 74.8261 36.8361 74.8167 36.8525 74.8073C36.9627 74.7429 37.0729 74.6772 37.182 74.6104C37.2195 74.5869 37.2559 74.5635 37.2934 74.5412C37.3895 74.4814 37.4833 74.4204 37.5783 74.3583C37.6006 74.3442 37.6217 74.3301 37.644 74.3149C37.7636 74.2352 37.8832 74.1531 38.0004 74.0698C38.0004 74.0698 38.0016 74.0698 38.0028 74.0687C38.1294 73.9795 38.2537 73.8881 38.378 73.7954C38.3838 73.7908 38.3897 73.7872 38.3944 73.7826C38.5058 73.6981 38.616 73.6125 38.7239 73.5258C38.7497 73.5047 38.7755 73.4836 38.8024 73.4625C38.8927 73.3898 38.9806 73.3171 39.0698 73.242C39.092 73.2233 39.1143 73.2045 39.1354 73.1857C39.4766 72.8938 39.8061 72.5878 40.1215 72.2677C40.1368 72.2524 40.1508 72.2372 40.1661 72.2219C40.2552 72.1305 40.3431 72.039 40.4311 71.9452C40.4475 71.9264 40.4651 71.9089 40.4815 71.8901C40.7875 71.5583 41.0795 71.2124 41.3574 70.8548C41.3667 70.8419 41.3761 70.8301 41.3855 70.8172C41.4676 70.7105 41.5485 70.6027 41.6282 70.4936C41.6411 70.476 41.654 70.4584 41.6669 70.4397C41.7537 70.3201 41.8381 70.2005 41.9213 70.0786L41.9213 63.6543L43.2006 63.6543C43.9381 63.6543 44.5466 63.0809 44.597 62.3457C44.6217 61.9893 44.6334 61.6305 44.6334 61.2682C44.6334 60.9059 44.6217 60.5471 44.597 60.1906C44.5466 59.4543 43.9381 58.8821 43.2006 58.8821L43.197 58.8821Z"/>
</mask>
<path d="M43.197 58.8821L41.9178 58.8821L41.9178 52.4578C41.8346 52.3359 41.7501 52.2151 41.6634 52.0967C41.661 52.0932 41.6575 52.0885 41.6552 52.085C41.5813 51.983 41.457 51.8176 41.3796 51.7168C41.3714 51.7051 41.362 51.6945 41.3538 51.6828C41.0771 51.3252 40.784 50.9805 40.478 50.6475C40.4627 50.6311 40.4475 50.6146 40.4322 50.5982C40.3443 50.5032 40.254 50.4094 40.1637 50.3168C40.1485 50.3016 40.1344 50.2863 40.1192 50.2711C39.8038 49.951 39.4755 49.645 39.1331 49.353C39.1155 49.3378 39.0979 49.3237 39.0803 49.3084C38.983 49.2264 38.8857 49.1455 38.786 49.0657C38.7649 49.0481 38.7438 49.0317 38.7215 49.0141C38.6125 48.9274 38.5023 48.8418 38.392 48.7574C38.3862 48.7527 38.3803 48.7492 38.3756 48.7445C38.2525 48.6518 38.127 48.5604 38.0004 48.4713C38.0004 48.4713 37.9992 48.4713 37.9981 48.4701C37.8808 48.3868 37.7612 48.3059 37.6416 48.225C37.6193 48.2098 37.5971 48.1957 37.5748 48.1816C37.4798 48.1195 37.3848 48.0574 37.2875 47.9964C37.2512 47.9741 37.216 47.9507 37.1796 47.9284C37.0706 47.8615 36.9616 47.7947 36.8502 47.7302C36.8338 47.7208 36.8185 47.7115 36.8021 47.7021C36.6708 47.6259 36.5383 47.552 36.4046 47.4793C36.3999 47.477 36.3952 47.4746 36.3894 47.4711C36.2663 47.4043 36.1431 47.3409 36.0177 47.2776C35.9895 47.2636 35.9614 47.2495 35.9333 47.2354C35.8289 47.1838 35.7234 47.1322 35.6178 47.083C35.5815 47.0654 35.544 47.049 35.5076 47.0314C35.3998 46.9822 35.2919 46.9341 35.184 46.8872C35.157 46.8755 35.1312 46.8637 35.1043 46.852C34.9671 46.7934 34.8276 46.7359 34.688 46.6808C34.6798 46.6773 34.6704 46.6738 34.6622 46.6714C34.5344 46.6222 34.4066 46.5741 34.2776 46.5272C34.239 46.5131 34.1991 46.4991 34.1604 46.4862C34.0596 46.451 33.9575 46.4158 33.8555 46.383C33.8122 46.3689 33.7676 46.3549 33.7242 46.3408C33.6187 46.3068 33.512 46.2751 33.4053 46.2435C33.3689 46.2329 33.3338 46.2212 33.2974 46.2118C33.1544 46.1708 33.0101 46.1309 32.8659 46.0946C32.8554 46.0922 32.8448 46.0899 32.8331 46.0863C32.7006 46.0523 32.5681 46.0207 32.4344 45.9902C32.3899 45.9796 32.3453 45.9714 32.3008 45.9609C32.1988 45.9386 32.0956 45.9175 31.9924 45.8976C31.9432 45.8882 31.8939 45.8788 31.8447 45.8694C31.7391 45.8495 31.6336 45.8319 31.5281 45.8143C31.4847 45.8073 31.4413 45.7991 31.3979 45.7932C31.2502 45.7698 31.1013 45.7487 30.9512 45.7299C30.943 45.7299 30.9336 45.7276 30.9254 45.7264C30.7847 45.7088 30.644 45.6936 30.5021 45.6795C30.454 45.6748 30.4071 45.6713 30.3591 45.6666C30.2547 45.6572 30.1492 45.649 30.0437 45.642C29.9909 45.6384 29.937 45.6349 29.8842 45.6314C29.7775 45.6255 29.672 45.6209 29.5653 45.6162C29.5172 45.6138 29.4703 45.6126 29.4222 45.6103C29.2686 45.6056 29.1162 45.6033 28.9614 45.6033C28.8078 45.6033 28.6542 45.6056 28.5006 45.6103C28.4525 45.6115 28.4045 45.6138 28.3576 45.6162C28.2509 45.6197 28.1442 45.6255 28.0386 45.6314C27.9859 45.6349 27.9319 45.6384 27.8792 45.642C27.7737 45.649 27.6693 45.6572 27.5638 45.6666C27.5157 45.6713 27.4688 45.6748 27.4207 45.6795C27.2788 45.6936 27.1381 45.7088 26.9974 45.7264C26.9892 45.7264 26.9799 45.7287 26.9716 45.7299C26.8216 45.7487 26.6738 45.7709 26.5249 45.7932C26.4815 45.8003 26.4381 45.8073 26.3948 45.8143C26.2892 45.8319 26.1837 45.8507 26.0782 45.8694C26.0289 45.8788 25.9797 45.8882 25.9304 45.8976C25.8273 45.9175 25.7241 45.9386 25.6221 45.9609C25.5775 45.9703 25.533 45.9796 25.4884 45.9902C25.3547 46.0207 25.2222 46.0523 25.0897 46.0863C25.0792 46.0887 25.0686 46.091 25.0569 46.0946C24.9127 46.1321 24.7685 46.1708 24.6254 46.2118C24.5891 46.2224 24.5539 46.2329 24.5175 46.2435C24.4108 46.2751 24.3041 46.308 24.1986 46.3408C24.1552 46.3549 24.1107 46.3689 24.0673 46.383C23.9653 46.417 23.8633 46.451 23.7624 46.4862C23.7238 46.5003 23.6839 46.5131 23.6452 46.5272C23.5162 46.5741 23.3884 46.621 23.2606 46.6714C23.2524 46.675 23.243 46.6785 23.2348 46.6808C23.0953 46.7359 22.9569 46.7934 22.8186 46.852C22.7916 46.8637 22.7658 46.8755 22.7388 46.8872C22.6298 46.9341 22.5219 46.9822 22.4152 47.0314C22.3765 47.049 22.339 47.0666 22.3003 47.0853C22.196 47.1346 22.0928 47.185 21.9896 47.2354C21.9614 47.2495 21.9333 47.2636 21.9052 47.2776C21.7809 47.341 21.6566 47.4054 21.5335 47.4711C21.5288 47.4734 21.5241 47.4758 21.5182 47.4793C21.3846 47.552 21.2521 47.6259 21.1207 47.7021C21.1043 47.7115 21.0891 47.7209 21.0727 47.7302C20.9625 47.7947 20.8522 47.8604 20.7432 47.9284C20.7068 47.9507 20.6717 47.9729 20.6353 47.9964C20.5392 48.0562 20.443 48.1183 20.3481 48.1817C20.3258 48.1957 20.3035 48.211 20.2812 48.225C20.1616 48.3048 20.042 48.3868 19.9248 48.4701C19.9248 48.4701 19.9236 48.4701 19.9224 48.4713C19.7958 48.5604 19.6715 48.6518 19.5472 48.7445C19.5414 48.7492 19.5355 48.7527 19.5308 48.7574C19.4194 48.8418 19.3092 48.9274 19.2013 49.0141C19.1849 49.0282 19.1673 49.0411 19.1509 49.0552C19.0477 49.1384 18.9445 49.2229 18.8437 49.3084C18.8261 49.3237 18.8085 49.3378 18.7909 49.353C18.4497 49.645 18.1203 49.951 17.8048 50.2711C17.7884 50.2875 17.772 50.3051 17.7544 50.3227C17.6653 50.4141 17.5762 50.5068 17.4894 50.6006C17.4742 50.6158 17.4601 50.6322 17.4449 50.6486C17.1389 50.9805 16.8457 51.3264 16.569 51.684C16.5444 51.7156 16.5209 51.7473 16.4963 51.7778C16.426 51.8622 16.3638 51.9525 16.3005 52.0416C16.2876 52.0604 16.2735 52.0791 16.2595 52.0979C16.1727 52.2175 16.0883 52.3371 16.005 52.459L16.005 58.8833L14.7258 58.8833C13.9883 58.8833 13.3797 59.4567 13.3293 60.1918C13.3047 60.5483 13.293 60.9071 13.293 61.2694C13.293 61.6317 13.3047 61.9905 13.3293 62.3469C13.3797 63.0833 13.9883 63.6555 14.7258 63.6555L16.005 63.6555L16.005 70.0797C16.0883 70.2017 16.1727 70.3213 16.2595 70.4409C16.2724 70.4596 16.2864 70.4772 16.2993 70.496C16.3779 70.6038 16.4588 70.7105 16.5397 70.8172C16.5491 70.8301 16.5596 70.843 16.569 70.8548C16.8457 71.2124 17.1389 71.5571 17.4449 71.8901C17.4601 71.9065 17.4765 71.9241 17.4918 71.9405C17.5821 72.0378 17.6747 72.134 17.7673 72.229C17.7802 72.2419 17.792 72.2548 17.8048 72.2677C18.1203 72.5878 18.4486 72.8938 18.7909 73.1857C18.8132 73.2045 18.8355 73.2233 18.8578 73.242C18.9469 73.3171 19.0372 73.3921 19.1286 73.4648C19.1533 73.4847 19.1779 73.5047 19.2025 73.5246C19.3115 73.6114 19.4218 73.697 19.532 73.7814C19.5378 73.7861 19.5437 73.7896 19.5484 73.7943C19.6715 73.8869 19.797 73.9784 19.9236 74.0675C19.9236 74.0675 19.9248 74.0675 19.9259 74.0687C20.0432 74.1519 20.1628 74.2328 20.2824 74.3137C20.3047 74.3278 20.327 74.343 20.3481 74.3571C20.443 74.4192 20.538 74.4814 20.633 74.5412C20.6693 74.5646 20.7057 74.5869 20.7432 74.6104C20.8522 74.6772 20.9613 74.7429 21.0727 74.8073C21.0891 74.8167 21.1043 74.8261 21.1207 74.8355C21.2521 74.9117 21.3846 74.9856 21.5182 75.0583C21.5229 75.0606 21.5276 75.063 21.5323 75.0653C21.6554 75.1321 21.7797 75.1966 21.9052 75.2599C21.9321 75.274 21.9603 75.2869 21.9884 75.301C22.0951 75.3537 22.203 75.4065 22.3109 75.4569C22.346 75.4733 22.3812 75.4898 22.4164 75.5062C22.5231 75.5554 22.6321 75.6035 22.74 75.6504C22.767 75.6621 22.7928 75.6738 22.8197 75.6856C22.9569 75.7442 23.0965 75.8016 23.236 75.8568C23.2442 75.8603 23.2536 75.8638 23.2618 75.8661C23.3896 75.9154 23.5174 75.9635 23.6464 76.0104C23.6851 76.0244 23.7249 76.0385 23.7636 76.0514L23.766 76.0514C23.8774 76.0901 23.9653 76.1769 24.0063 76.2882C24.1154 76.5896 24.2702 76.8745 24.4648 77.1336L24.9772 77.8149C25.3055 78.2522 25.4837 78.7846 25.4837 79.3321L25.4837 93.7847C25.4825 94.5574 26.1087 95.1847 26.8825 95.1847L31.0438 95.1847C31.8165 95.1847 32.4438 94.5585 32.4438 93.7847L32.4438 79.3321C32.4438 78.7846 32.622 78.2522 32.9504 77.8149L33.4627 77.1336C33.6574 76.8745 33.811 76.5896 33.92 76.2894C33.9611 76.178 34.049 76.0913 34.1604 76.0526L34.1627 76.0526C34.2014 76.0385 34.2413 76.0244 34.28 76.0104C34.409 75.9635 34.5368 75.9166 34.6646 75.8661C34.6728 75.8626 34.6822 75.8591 34.6904 75.8568C34.8299 75.8016 34.9683 75.7442 35.1066 75.6856C35.1336 75.6738 35.1594 75.6621 35.1864 75.6504C35.2954 75.6035 35.4033 75.5554 35.51 75.5062C35.5452 75.4898 35.5803 75.4733 35.6143 75.4569C35.7222 75.4065 35.8289 75.3537 35.9368 75.301C35.9649 75.2869 35.9919 75.274 36.02 75.2599C36.1455 75.1966 36.2698 75.1321 36.3929 75.0653C36.3976 75.063 36.4023 75.0606 36.407 75.0583C36.5406 74.9856 36.6731 74.9117 36.8044 74.8355C36.8209 74.8261 36.8361 74.8167 36.8525 74.8073C36.9627 74.7429 37.0729 74.6772 37.182 74.6104C37.2195 74.5869 37.2559 74.5635 37.2934 74.5412C37.3895 74.4814 37.4833 74.4204 37.5783 74.3583C37.6006 74.3442 37.6217 74.3301 37.644 74.3149C37.7636 74.2352 37.8832 74.1531 38.0004 74.0698C38.0004 74.0698 38.0016 74.0698 38.0028 74.0687C38.1294 73.9795 38.2537 73.8881 38.378 73.7954C38.3838 73.7908 38.3897 73.7872 38.3944 73.7826C38.5058 73.6981 38.616 73.6125 38.7239 73.5258C38.7497 73.5047 38.7755 73.4836 38.8024 73.4625C38.8927 73.3898 38.9806 73.3171 39.0698 73.242C39.092 73.2233 39.1143 73.2045 39.1354 73.1857C39.4766 72.8938 39.8061 72.5878 40.1215 72.2677C40.1368 72.2524 40.1508 72.2372 40.1661 72.2219C40.2552 72.1305 40.3431 72.039 40.4311 71.9452C40.4475 71.9264 40.4651 71.9089 40.4815 71.8901C40.7875 71.5583 41.0795 71.2124 41.3574 70.8548C41.3667 70.8419 41.3761 70.8301 41.3855 70.8172C41.4676 70.7105 41.5485 70.6027 41.6282 70.4936C41.6411 70.476 41.654 70.4584 41.6669 70.4397C41.7537 70.3201 41.8381 70.2005 41.9213 70.0786L41.9213 63.6543L43.2006 63.6543C43.9381 63.6543 44.5466 63.0809 44.597 62.3457C44.6217 61.9893 44.6334 61.6305 44.6334 61.2682C44.6334 60.9059 44.6217 60.5471 44.597 60.1906C44.5466 59.4543 43.9381 58.8821 43.2006 58.8821L43.197 58.8821Z" fill="#131111"/>
<path d="M43.197 58.8821L41.9178 58.8821L41.9178 52.4578C41.8346 52.3359 41.7501 52.2151 41.6634 52.0967C41.661 52.0932 41.6575 52.0885 41.6552 52.085C41.5813 51.983 41.457 51.8176 41.3796 51.7168C41.3714 51.7051 41.362 51.6945 41.3538 51.6828C41.0771 51.3252 40.784 50.9805 40.478 50.6475C40.4627 50.6311 40.4475 50.6146 40.4322 50.5982C40.3443 50.5032 40.254 50.4094 40.1637 50.3168C40.1485 50.3016 40.1344 50.2863 40.1192 50.2711C39.8038 49.951 39.4755 49.645 39.1331 49.353C39.1155 49.3378 39.0979 49.3237 39.0803 49.3084C38.983 49.2264 38.8857 49.1455 38.786 49.0657C38.7649 49.0481 38.7438 49.0317 38.7215 49.0141C38.6125 48.9274 38.5023 48.8418 38.392 48.7574C38.3862 48.7527 38.3803 48.7492 38.3756 48.7445C38.2525 48.6518 38.127 48.5604 38.0004 48.4713C38.0004 48.4713 37.9992 48.4713 37.9981 48.4701C37.8808 48.3868 37.7612 48.3059 37.6416 48.225C37.6193 48.2098 37.5971 48.1957 37.5748 48.1816C37.4798 48.1195 37.3848 48.0574 37.2875 47.9964C37.2512 47.9741 37.216 47.9507 37.1796 47.9284C37.0706 47.8615 36.9616 47.7947 36.8502 47.7302C36.8338 47.7208 36.8185 47.7115 36.8021 47.7021C36.6708 47.6259 36.5383 47.552 36.4046 47.4793C36.3999 47.477 36.3952 47.4746 36.3894 47.4711C36.2663 47.4043 36.1431 47.3409 36.0177 47.2776C35.9895 47.2636 35.9614 47.2495 35.9333 47.2354C35.8289 47.1838 35.7234 47.1322 35.6178 47.083C35.5815 47.0654 35.544 47.049 35.5076 47.0314C35.3998 46.9822 35.2919 46.9341 35.184 46.8872C35.157 46.8755 35.1312 46.8637 35.1043 46.852C34.9671 46.7934 34.8276 46.7359 34.688 46.6808C34.6798 46.6773 34.6704 46.6738 34.6622 46.6714C34.5344 46.6222 34.4066 46.5741 34.2776 46.5272C34.239 46.5131 34.1991 46.4991 34.1604 46.4862C34.0596 46.451 33.9575 46.4158 33.8555 46.383C33.8122 46.3689 33.7676 46.3549 33.7242 46.3408C33.6187 46.3068 33.512 46.2751 33.4053 46.2435C33.3689 46.2329 33.3338 46.2212 33.2974 46.2118C33.1544 46.1708 33.0101 46.1309 32.8659 46.0946C32.8554 46.0922 32.8448 46.0899 32.8331 46.0863C32.7006 46.0523 32.5681 46.0207 32.4344 45.9902C32.3899 45.9796 32.3453 45.9714 32.3008 45.9609C32.1988 45.9386 32.0956 45.9175 31.9924 45.8976C31.9432 45.8882 31.8939 45.8788 31.8447 45.8694C31.7391 45.8495 31.6336 45.8319 31.5281 45.8143C31.4847 45.8073 31.4413 45.7991 31.3979 45.7932C31.2502 45.7698 31.1013 45.7487 30.9512 45.7299C30.943 45.7299 30.9336 45.7276 30.9254 45.7264C30.7847 45.7088 30.644 45.6936 30.5021 45.6795C30.454 45.6748 30.4071 45.6713 30.3591 45.6666C30.2547 45.6572 30.1492 45.649 30.0437 45.642C29.9909 45.6384 29.937 45.6349 29.8842 45.6314C29.7775 45.6255 29.672 45.6209 29.5653 45.6162C29.5172 45.6138 29.4703 45.6126 29.4222 45.6103C29.2686 45.6056 29.1162 45.6033 28.9614 45.6033C28.8078 45.6033 28.6542 45.6056 28.5006 45.6103C28.4525 45.6115 28.4045 45.6138 28.3576 45.6162C28.2509 45.6197 28.1442 45.6255 28.0386 45.6314C27.9859 45.6349 27.9319 45.6384 27.8792 45.642C27.7737 45.649 27.6693 45.6572 27.5638 45.6666C27.5157 45.6713 27.4688 45.6748 27.4207 45.6795C27.2788 45.6936 27.1381 45.7088 26.9974 45.7264C26.9892 45.7264 26.9799 45.7287 26.9716 45.7299C26.8216 45.7487 26.6738 45.7709 26.5249 45.7932C26.4815 45.8003 26.4381 45.8073 26.3948 45.8143C26.2892 45.8319 26.1837 45.8507 26.0782 45.8694C26.0289 45.8788 25.9797 45.8882 25.9304 45.8976C25.8273 45.9175 25.7241 45.9386 25.6221 45.9609C25.5775 45.9703 25.533 45.9796 25.4884 45.9902C25.3547 46.0207 25.2222 46.0523 25.0897 46.0863C25.0792 46.0887 25.0686 46.091 25.0569 46.0946C24.9127 46.1321 24.7685 46.1708 24.6254 46.2118C24.5891 46.2224 24.5539 46.2329 24.5175 46.2435C24.4108 46.2751 24.3041 46.308 24.1986 46.3408C24.1552 46.3549 24.1107 46.3689 24.0673 46.383C23.9653 46.417 23.8633 46.451 23.7624 46.4862C23.7238 46.5003 23.6839 46.5131 23.6452 46.5272C23.5162 46.5741 23.3884 46.621 23.2606 46.6714C23.2524 46.675 23.243 46.6785 23.2348 46.6808C23.0953 46.7359 22.9569 46.7934 22.8186 46.852C22.7916 46.8637 22.7658 46.8755 22.7388 46.8872C22.6298 46.9341 22.5219 46.9822 22.4152 47.0314C22.3765 47.049 22.339 47.0666 22.3003 47.0853C22.196 47.1346 22.0928 47.185 21.9896 47.2354C21.9614 47.2495 21.9333 47.2636 21.9052 47.2776C21.7809 47.341 21.6566 47.4054 21.5335 47.4711C21.5288 47.4734 21.5241 47.4758 21.5182 47.4793C21.3846 47.552 21.2521 47.6259 21.1207 47.7021C21.1043 47.7115 21.0891 47.7209 21.0727 47.7302C20.9625 47.7947 20.8522 47.8604 20.7432 47.9284C20.7068 47.9507 20.6717 47.9729 20.6353 47.9964C20.5392 48.0562 20.443 48.1183 20.3481 48.1817C20.3258 48.1957 20.3035 48.211 20.2812 48.225C20.1616 48.3048 20.042 48.3868 19.9248 48.4701C19.9248 48.4701 19.9236 48.4701 19.9224 48.4713C19.7958 48.5604 19.6715 48.6518 19.5472 48.7445C19.5414 48.7492 19.5355 48.7527 19.5308 48.7574C19.4194 48.8418 19.3092 48.9274 19.2013 49.0141C19.1849 49.0282 19.1673 49.0411 19.1509 49.0552C19.0477 49.1384 18.9445 49.2229 18.8437 49.3084C18.8261 49.3237 18.8085 49.3378 18.7909 49.353C18.4497 49.645 18.1203 49.951 17.8048 50.2711C17.7884 50.2875 17.772 50.3051 17.7544 50.3227C17.6653 50.4141 17.5762 50.5068 17.4894 50.6006C17.4742 50.6158 17.4601 50.6322 17.4449 50.6486C17.1389 50.9805 16.8457 51.3264 16.569 51.684C16.5444 51.7156 16.5209 51.7473 16.4963 51.7778C16.426 51.8622 16.3638 51.9525 16.3005 52.0416C16.2876 52.0604 16.2735 52.0791 16.2595 52.0979C16.1727 52.2175 16.0883 52.3371 16.005 52.459L16.005 58.8833L14.7258 58.8833C13.9883 58.8833 13.3797 59.4567 13.3293 60.1918C13.3047 60.5483 13.293 60.9071 13.293 61.2694C13.293 61.6317 13.3047 61.9905 13.3293 62.3469C13.3797 63.0833 13.9883 63.6555 14.7258 63.6555L16.005 63.6555L16.005 70.0797C16.0883 70.2017 16.1727 70.3213 16.2595 70.4409C16.2724 70.4596 16.2864 70.4772 16.2993 70.496C16.3779 70.6038 16.4588 70.7105 16.5397 70.8172C16.5491 70.8301 16.5596 70.843 16.569 70.8548C16.8457 71.2124 17.1389 71.5571 17.4449 71.8901C17.4601 71.9065 17.4765 71.9241 17.4918 71.9405C17.5821 72.0378 17.6747 72.134 17.7673 72.229C17.7802 72.2419 17.792 72.2548 17.8048 72.2677C18.1203 72.5878 18.4486 72.8938 18.7909 73.1857C18.8132 73.2045 18.8355 73.2233 18.8578 73.242C18.9469 73.3171 19.0372 73.3921 19.1286 73.4648C19.1533 73.4847 19.1779 73.5047 19.2025 73.5246C19.3115 73.6114 19.4218 73.697 19.532 73.7814C19.5378 73.7861 19.5437 73.7896 19.5484 73.7943C19.6715 73.8869 19.797 73.9784 19.9236 74.0675C19.9236 74.0675 19.9248 74.0675 19.9259 74.0687C20.0432 74.1519 20.1628 74.2328 20.2824 74.3137C20.3047 74.3278 20.327 74.343 20.3481 74.3571C20.443 74.4192 20.538 74.4814 20.633 74.5412C20.6693 74.5646 20.7057 74.5869 20.7432 74.6104C20.8522 74.6772 20.9613 74.7429 21.0727 74.8073C21.0891 74.8167 21.1043 74.8261 21.1207 74.8355C21.2521 74.9117 21.3846 74.9856 21.5182 75.0583C21.5229 75.0606 21.5276 75.063 21.5323 75.0653C21.6554 75.1321 21.7797 75.1966 21.9052 75.2599C21.9321 75.274 21.9603 75.2869 21.9884 75.301C22.0951 75.3537 22.203 75.4065 22.3109 75.4569C22.346 75.4733 22.3812 75.4898 22.4164 75.5062C22.5231 75.5554 22.6321 75.6035 22.74 75.6504C22.767 75.6621 22.7928 75.6738 22.8197 75.6856C22.9569 75.7442 23.0965 75.8016 23.236 75.8568C23.2442 75.8603 23.2536 75.8638 23.2618 75.8661C23.3896 75.9154 23.5174 75.9635 23.6464 76.0104C23.6851 76.0244 23.7249 76.0385 23.7636 76.0514L23.766 76.0514C23.8774 76.0901 23.9653 76.1769 24.0063 76.2882C24.1154 76.5896 24.2702 76.8745 24.4648 77.1336L24.9772 77.8149C25.3055 78.2522 25.4837 78.7846 25.4837 79.3321L25.4837 93.7847C25.4825 94.5574 26.1087 95.1847 26.8825 95.1847L31.0438 95.1847C31.8165 95.1847 32.4438 94.5585 32.4438 93.7847L32.4438 79.3321C32.4438 78.7846 32.622 78.2522 32.9504 77.8149L33.4627 77.1336C33.6574 76.8745 33.811 76.5896 33.92 76.2894C33.9611 76.178 34.049 76.0913 34.1604 76.0526L34.1627 76.0526C34.2014 76.0385 34.2413 76.0244 34.28 76.0104C34.409 75.9635 34.5368 75.9166 34.6646 75.8661C34.6728 75.8626 34.6822 75.8591 34.6904 75.8568C34.8299 75.8016 34.9683 75.7442 35.1066 75.6856C35.1336 75.6738 35.1594 75.6621 35.1864 75.6504C35.2954 75.6035 35.4033 75.5554 35.51 75.5062C35.5452 75.4898 35.5803 75.4733 35.6143 75.4569C35.7222 75.4065 35.8289 75.3537 35.9368 75.301C35.9649 75.2869 35.9919 75.274 36.02 75.2599C36.1455 75.1966 36.2698 75.1321 36.3929 75.0653C36.3976 75.063 36.4023 75.0606 36.407 75.0583C36.5406 74.9856 36.6731 74.9117 36.8044 74.8355C36.8209 74.8261 36.8361 74.8167 36.8525 74.8073C36.9627 74.7429 37.0729 74.6772 37.182 74.6104C37.2195 74.5869 37.2559 74.5635 37.2934 74.5412C37.3895 74.4814 37.4833 74.4204 37.5783 74.3583C37.6006 74.3442 37.6217 74.3301 37.644 74.3149C37.7636 74.2352 37.8832 74.1531 38.0004 74.0698C38.0004 74.0698 38.0016 74.0698 38.0028 74.0687C38.1294 73.9795 38.2537 73.8881 38.378 73.7954C38.3838 73.7908 38.3897 73.7872 38.3944 73.7826C38.5058 73.6981 38.616 73.6125 38.7239 73.5258C38.7497 73.5047 38.7755 73.4836 38.8024 73.4625C38.8927 73.3898 38.9806 73.3171 39.0698 73.242C39.092 73.2233 39.1143 73.2045 39.1354 73.1857C39.4766 72.8938 39.8061 72.5878 40.1215 72.2677C40.1368 72.2524 40.1508 72.2372 40.1661 72.2219C40.2552 72.1305 40.3431 72.039 40.4311 71.9452C40.4475 71.9264 40.4651 71.9089 40.4815 71.8901C40.7875 71.5583 41.0795 71.2124 41.3574 70.8548C41.3667 70.8419 41.3761 70.8301 41.3855 70.8172C41.4676 70.7105 41.5485 70.6027 41.6282 70.4936C41.6411 70.476 41.654 70.4584 41.6669 70.4397C41.7537 70.3201 41.8381 70.2005 41.9213 70.0786L41.9213 63.6543L43.2006 63.6543C43.9381 63.6543 44.5466 63.0809 44.597 62.3457C44.6217 61.9893 44.6334 61.6305 44.6334 61.2682C44.6334 60.9059 44.6217 60.5471 44.597 60.1906C44.5466 59.4543 43.9381 58.8821 43.2006 58.8821L43.197 58.8821Z" stroke="white" stroke-width="1.32182" mask="url(#path-22-outside-1_5_1053)"/>
<path d="M27.6185 82.573L25.4795 82.573L25.4795 81.449L27.6185 81.449C27.9283 81.449 28.1805 81.7001 28.1805 82.011C28.1805 82.3208 27.9294 82.573 27.6185 82.573Z" fill="white"/>
<path d="M27.6185 85.1534L25.4795 85.1534L25.4795 84.0305L27.6185 84.0305C27.9283 84.0305 28.1805 84.2816 28.1805 84.5925C28.1805 84.9023 27.9294 85.1546 27.6185 85.1546L27.6185 85.1534Z" fill="white"/>
<path d="M27.6185 87.7325L25.4795 87.7325L25.4795 86.6084L27.6185 86.6084C27.9283 86.6084 28.1805 86.8595 28.1805 87.1704C28.1805 87.4802 27.9294 87.7325 27.6185 87.7325Z" fill="white"/>
<path d="M27.6185 90.3101L25.4795 90.3101L25.4795 89.186L27.6185 89.186C27.9283 89.186 28.1805 89.4371 28.1805 89.7481C28.1805 90.0578 27.9294 90.3101 27.6185 90.3101Z" fill="white"/>
<path d="M27.6185 92.8916L25.4795 92.8916L25.4795 91.7676L27.6185 91.7676C27.9283 91.7676 28.1805 92.0187 28.1805 92.3296C28.1805 92.6394 27.9294 92.8916 27.6185 92.8916Z" fill="white"/>
<path d="M30.3032 83.9212L32.4423 83.9212L32.4423 82.7971L30.3032 82.7971C29.9935 82.7971 29.7412 83.0482 29.7412 83.3592C29.7412 83.6689 29.9923 83.9212 30.3032 83.9212Z" fill="white"/>
<path d="M30.3032 86.5027L32.4423 86.5027L32.4423 85.3787L30.3032 85.3787C29.9935 85.3787 29.7412 85.6298 29.7412 85.9407C29.7412 86.2505 29.9923 86.5027 30.3032 86.5027Z" fill="white"/>
<path d="M30.3032 89.0806L32.4423 89.0806L32.4423 87.9565L30.3032 87.9565C29.9935 87.9565 29.7412 88.2076 29.7412 88.5186C29.7412 88.8283 29.9923 89.0806 30.3032 89.0806Z" fill="white"/>
<path d="M30.3032 91.6622L32.4423 91.6622L32.4423 90.5381L30.3032 90.5381C29.9935 90.5381 29.7412 90.7892 29.7412 91.1001C29.7412 91.4099 29.9923 91.6622 30.3032 91.6622Z" fill="white"/>
<path d="M32.4423 80.8191L32.4423 81.3436L30.3032 81.3436C29.9935 81.3436 29.7412 81.0925 29.7412 80.7815C29.7412 80.4706 29.9923 80.2195 30.3032 80.2195L32.4423 80.2195L32.4423 80.8191Z" fill="white"/>
</g>
<path d="M144.352 82.2646L94.6478 82.2646C94.0426 82.2646 93.393 81.9116 92.8545 81.1347C92.3185 80.3613 91.9564 79.2412 91.9564 77.958L91.9564 6.24653C91.9564 4.96336 92.3185 3.84319 92.8545 3.06988C93.393 2.2929 94.0425 1.93997 94.6478 1.93997L144.352 1.93996C144.957 1.93996 145.607 2.29289 146.146 3.06988C146.682 3.84319 147.044 4.96336 147.044 6.24653L147.044 77.958C147.044 79.2412 146.682 80.3613 146.146 81.1347C145.607 81.9116 144.957 82.2646 144.352 82.2646Z" stroke="white" stroke-width="1.91277"/>
<path d="M97.3459 6.73985L141.654 6.73985C142.953 6.73985 144.01 8.26496 144.01 10.139L144.01 74.0647C144.01 75.9388 142.953 77.4639 141.654 77.4639L97.3459 77.4639C96.0469 77.4639 94.9899 75.9388 94.9899 74.0647L94.9898 10.1391C94.9898 8.26497 96.0469 6.73985 97.3459 6.73985ZM141.654 75.8198C142.324 75.8198 142.87 75.034 142.87 74.0647L142.87 10.139C142.87 9.17227 142.326 8.38387 141.654 8.38387L97.3459 8.38387C96.6758 8.38387 96.1293 9.16969 96.1293 10.139L96.1293 74.0647C96.1293 75.0314 96.674 75.8198 97.3459 75.8198L141.654 75.8198Z" fill="white"/>
<path d="M97.3457 8.38755L141.655 8.38755C142.325 8.38755 142.87 9.17337 142.87 10.1401L142.87 9.48098C142.87 8.51421 142.325 7.72839 141.655 7.72839L97.3457 7.72839C96.6757 7.72839 96.131 8.51422 96.131 9.48098L96.131 10.1401C96.131 9.17337 96.6757 8.38755 97.3457 8.38755Z" fill="white"/>
<mask id="mask3_5_1053" style="mask-type:alpha" maskUnits="userSpaceOnUse" x="103" y="44" width="33" height="27">
<rect x="135.279" y="70.146" width="31.5333" height="25.2625" transform="rotate(180 135.279 70.146)" fill="#AAB0BB"/>
</mask>
<g mask="url(#mask3_5_1053)">
<ellipse cx="119.513" cy="57.5139" rx="15.7666" ry="19.521" transform="rotate(180 119.513 57.5139)" fill="white"/>
</g>
<path d="M125.701 65.4866L127.622 65.4866C127.792 65.4866 127.93 65.3486 127.93 65.1784L127.93 59.4003C127.93 59.2301 127.792 59.0921 127.622 59.0921L125.701 59.0921C125.531 59.0921 125.393 59.2301 125.393 59.4003L125.393 65.1784C125.393 65.3486 125.531 65.4866 125.701 65.4866Z" fill="#131111"/>
<path d="M125.391 59.6699L125.391 59.401C125.391 59.2307 125.529 59.0926 125.701 59.0926L127.621 59.0926C127.792 59.0926 127.93 59.2307 127.93 59.401L127.93 59.6699C127.93 59.4978 127.792 59.3597 127.621 59.3597L125.701 59.3597C125.529 59.3597 125.391 59.4978 125.391 59.6699Z" fill="#131111"/>
<path d="M111.509 65.4866L113.43 65.4866C113.6 65.4866 113.738 65.3486 113.738 65.1784L113.738 59.4003C113.738 59.2301 113.6 59.0921 113.43 59.0921L111.509 59.0921C111.339 59.0921 111.201 59.2301 111.201 59.4003L111.201 65.1784C111.201 65.3486 111.339 65.4866 111.509 65.4866Z" fill="#131111"/>
<path d="M111.196 59.6699L111.196 59.401C111.196 59.2307 111.334 59.0926 111.506 59.0926L113.426 59.0926C113.596 59.0926 113.734 59.2307 113.734 59.401L113.734 59.6699C113.734 59.4978 113.596 59.3597 113.426 59.3597L111.506 59.3597C111.334 59.3597 111.196 59.4978 111.196 59.6699Z" fill="#131111"/>
<path d="M119.42 53.4866C120.73 53.5672 121.813 52.5298 121.813 51.2398L121.813 49.9731C121.813 49.8083 121.681 49.6757 121.516 49.6757L117.614 49.6757C117.449 49.6757 117.316 49.8083 117.316 49.9731L117.316 51.1664C117.316 52.365 118.223 53.4113 119.422 53.4848L119.42 53.4866Z" fill="#131111"/>
<path d="M117.315 50.2893L117.315 49.974C117.315 49.8091 117.449 49.6784 117.614 49.6784L121.514 49.6784C121.679 49.6784 121.813 49.8109 121.813 49.974L121.813 50.2893C121.813 50.1245 121.679 49.9901 121.514 49.9901L117.614 49.9901C117.449 49.9901 117.315 50.1245 117.315 50.2893Z" fill="#131111"/>
<mask id="mask4_5_1053" style="mask-type:alpha" maskUnits="userSpaceOnUse" x="103" y="13" width="33" height="26">
<rect x="135.279" y="38.4304" width="31.5333" height="25.2625" transform="rotate(180 135.279 38.4304)" fill="#AAB0BB"/>
</mask>
<g mask="url(#mask4_5_1053)">
<ellipse cx="119.513" cy="25.7983" rx="15.7666" ry="19.521" transform="rotate(180 119.513 25.7983)" fill="white"/>
</g>
<path d="M125.701 33.7739L127.622 33.7739C127.792 33.7739 127.93 33.636 127.93 33.4658L127.93 27.6876C127.93 27.5174 127.792 27.3795 127.622 27.3795L125.701 27.3795C125.531 27.3795 125.393 27.5174 125.393 27.6876L125.393 33.4658C125.393 33.636 125.531 33.7739 125.701 33.7739Z" fill="#131111"/>
<path d="M125.391 27.9573L125.391 27.6883C125.391 27.518 125.529 27.38 125.701 27.38L127.621 27.38C127.792 27.38 127.93 27.518 127.93 27.6883L127.93 27.9573C127.93 27.7852 127.792 27.6471 127.621 27.6471L125.701 27.6471C125.529 27.6471 125.391 27.7852 125.391 27.9573Z" fill="#131111"/>
<path d="M111.509 33.7739L113.43 33.7739C113.6 33.7739 113.738 33.636 113.738 33.4658L113.738 27.6876C113.738 27.5174 113.6 27.3795 113.43 27.3795L111.509 27.3795C111.339 27.3795 111.201 27.5174 111.201 27.6876L111.201 33.4658C111.201 33.636 111.339 33.7739 111.509 33.7739Z" fill="#131111"/>
<path d="M111.196 27.9573L111.196 27.6883C111.196 27.518 111.334 27.38 111.506 27.38L113.426 27.38C113.596 27.38 113.734 27.518 113.734 27.6883L113.734 27.9573C113.734 27.7852 113.596 27.6471 113.426 27.6471L111.506 27.6471C111.334 27.6471 111.196 27.7852 111.196 27.9573Z" fill="#131111"/>
<path d="M119.42 21.7739C120.73 21.8545 121.813 20.8172 121.813 19.5272L121.813 18.2605C121.813 18.0956 121.681 17.963 121.516 17.963L117.614 17.963C117.449 17.963 117.316 18.0956 117.316 18.2605L117.316 19.4537C117.316 20.6523 118.223 21.6987 119.422 21.7721L119.42 21.7739Z" fill="#131111"/>
<path d="M117.315 18.5767L117.315 18.2613C117.315 18.0965 117.449 17.9657 117.614 17.9657L121.514 17.9657C121.679 17.9657 121.813 18.0983 121.813 18.2613L121.813 18.5767C121.813 18.4118 121.679 18.2775 121.514 18.2775L117.614 18.2775C117.449 18.2775 117.315 18.4118 117.315 18.5767Z" fill="#131111"/>
<path d="M119.889 47.0297C124.781 46.9198 126.289 51.2966 128.605 56.0339C130.664 60.2471 132.177 66.9684 132.747 69.7445C132.882 70.4017 132.377 71.0073 131.706 71.0073L108.143 71.0073C107.449 71.0073 106.938 70.3634 107.11 69.6906C107.823 66.9003 109.607 60.2985 111.555 56.0339C113.488 51.8049 115.099 47.1372 119.889 47.0297Z" fill="#131111"/>
<mask id="mask5_5_1053" style="mask-type:alpha" maskUnits="userSpaceOnUse" x="104" y="70" width="32" height="28">
<rect x="135.634" y="97.0164" width="31.2928" height="26.6192" transform="rotate(180 135.634 97.0164)" fill="#D9D9D9"/>
</mask>
<g mask="url(#mask5_5_1053)">
<mask id="path-54-outside-2_5_1053" maskUnits="userSpaceOnUse" x="103.293" y="44.6033" width="34" height="52" fill="black">
<rect fill="white" x="103.293" y="44.6033" width="34" height="52"/>
<path d="M134.197 58.8821L132.918 58.8821L132.918 52.4578C132.835 52.3359 132.75 52.2151 132.663 52.0967C132.661 52.0932 132.658 52.0885 132.655 52.085C132.581 51.983 132.457 51.8176 132.38 51.7168C132.371 51.7051 132.362 51.6945 132.354 51.6828C132.077 51.3252 131.784 50.9805 131.478 50.6475C131.463 50.6311 131.447 50.6146 131.432 50.5982C131.344 50.5032 131.254 50.4094 131.164 50.3168C131.148 50.3016 131.134 50.2863 131.119 50.2711C130.804 49.951 130.475 49.645 130.133 49.353C130.115 49.3378 130.098 49.3237 130.08 49.3084C129.983 49.2264 129.886 49.1455 129.786 49.0657C129.765 49.0481 129.744 49.0317 129.722 49.0141C129.612 48.9274 129.502 48.8418 129.392 48.7574C129.386 48.7527 129.38 48.7492 129.376 48.7445C129.253 48.6518 129.127 48.5604 129 48.4713C129 48.4713 128.999 48.4713 128.998 48.4701C128.881 48.3868 128.761 48.3059 128.642 48.225C128.619 48.2098 128.597 48.1957 128.575 48.1816C128.48 48.1195 128.385 48.0574 128.288 47.9964C128.251 47.9741 128.216 47.9507 128.18 47.9284C128.071 47.8615 127.962 47.7947 127.85 47.7302C127.834 47.7208 127.819 47.7115 127.802 47.7021C127.671 47.6259 127.538 47.552 127.405 47.4793C127.4 47.477 127.395 47.4746 127.389 47.4711C127.266 47.4043 127.143 47.3409 127.018 47.2776C126.99 47.2636 126.961 47.2495 126.933 47.2354C126.829 47.1838 126.723 47.1322 126.618 47.083C126.581 47.0654 126.544 47.049 126.508 47.0314C126.4 46.9822 126.292 46.9341 126.184 46.8872C126.157 46.8755 126.131 46.8637 126.104 46.852C125.967 46.7934 125.828 46.7359 125.688 46.6808C125.68 46.6773 125.67 46.6738 125.662 46.6714C125.534 46.6222 125.407 46.5741 125.278 46.5272C125.239 46.5131 125.199 46.4991 125.16 46.4862C125.06 46.451 124.958 46.4158 124.856 46.383C124.812 46.3689 124.768 46.3549 124.724 46.3408C124.619 46.3068 124.512 46.2751 124.405 46.2435C124.369 46.2329 124.334 46.2212 124.297 46.2118C124.154 46.1708 124.01 46.1309 123.866 46.0946C123.855 46.0922 123.845 46.0899 123.833 46.0863C123.701 46.0523 123.568 46.0207 123.434 45.9902C123.39 45.9796 123.345 45.9714 123.301 45.9609C123.199 45.9386 123.096 45.9175 122.992 45.8976C122.943 45.8882 122.894 45.8788 122.845 45.8694C122.739 45.8495 122.634 45.8319 122.528 45.8143C122.485 45.8073 122.441 45.7991 122.398 45.7932C122.25 45.7698 122.101 45.7487 121.951 45.7299C121.943 45.7299 121.934 45.7276 121.925 45.7264C121.785 45.7088 121.644 45.6936 121.502 45.6795C121.454 45.6748 121.407 45.6713 121.359 45.6666C121.255 45.6572 121.149 45.649 121.044 45.642C120.991 45.6384 120.937 45.6349 120.884 45.6314C120.777 45.6255 120.672 45.6209 120.565 45.6162C120.517 45.6138 120.47 45.6126 120.422 45.6103C120.269 45.6056 120.116 45.6033 119.961 45.6033C119.808 45.6033 119.654 45.6056 119.501 45.6103C119.453 45.6115 119.404 45.6138 119.358 45.6162C119.251 45.6197 119.144 45.6255 119.039 45.6314C118.986 45.6349 118.932 45.6384 118.879 45.642C118.774 45.649 118.669 45.6572 118.564 45.6666C118.516 45.6713 118.469 45.6748 118.421 45.6795C118.279 45.6936 118.138 45.7088 117.997 45.7264C117.989 45.7264 117.98 45.7287 117.972 45.7299C117.822 45.7487 117.674 45.7709 117.525 45.7932C117.482 45.8003 117.438 45.8073 117.395 45.8143C117.289 45.8319 117.184 45.8507 117.078 45.8694C117.029 45.8788 116.98 45.8882 116.93 45.8976C116.827 45.9175 116.724 45.9386 116.622 45.9609C116.578 45.9703 116.533 45.9796 116.488 45.9902C116.355 46.0207 116.222 46.0523 116.09 46.0863C116.079 46.0887 116.069 46.091 116.057 46.0946C115.913 46.1321 115.768 46.1708 115.625 46.2118C115.589 46.2224 115.554 46.2329 115.518 46.2435C115.411 46.2751 115.304 46.308 115.199 46.3408C115.155 46.3549 115.111 46.3689 115.067 46.383C114.965 46.417 114.863 46.451 114.762 46.4862C114.724 46.5003 114.684 46.5131 114.645 46.5272C114.516 46.5741 114.388 46.621 114.261 46.6714C114.252 46.675 114.243 46.6785 114.235 46.6808C114.095 46.7359 113.957 46.7934 113.819 46.852C113.792 46.8637 113.766 46.8755 113.739 46.8872C113.63 46.9341 113.522 46.9822 113.415 47.0314C113.377 47.049 113.339 47.0666 113.3 47.0853C113.196 47.1346 113.093 47.185 112.99 47.2354C112.961 47.2495 112.933 47.2636 112.905 47.2776C112.781 47.341 112.657 47.4054 112.533 47.4711C112.529 47.4734 112.524 47.4758 112.518 47.4793C112.385 47.552 112.252 47.6259 112.121 47.7021C112.104 47.7115 112.089 47.7209 112.073 47.7302C111.962 47.7947 111.852 47.8604 111.743 47.9284C111.707 47.9507 111.672 47.9729 111.635 47.9964C111.539 48.0562 111.443 48.1183 111.348 48.1817C111.326 48.1957 111.303 48.211 111.281 48.225C111.162 48.3048 111.042 48.3868 110.925 48.4701C110.925 48.4701 110.924 48.4701 110.922 48.4713C110.796 48.5604 110.672 48.6518 110.547 48.7445C110.541 48.7492 110.535 48.7527 110.531 48.7574C110.419 48.8418 110.309 48.9274 110.201 49.0141C110.185 49.0282 110.167 49.0411 110.151 49.0552C110.048 49.1384 109.945 49.2229 109.844 49.3084C109.826 49.3237 109.809 49.3378 109.791 49.353C109.45 49.645 109.12 49.951 108.805 50.2711C108.788 50.2875 108.772 50.3051 108.754 50.3227C108.665 50.4141 108.576 50.5068 108.489 50.6006C108.474 50.6158 108.46 50.6322 108.445 50.6486C108.139 50.9805 107.846 51.3264 107.569 51.684C107.544 51.7156 107.521 51.7473 107.496 51.7778C107.426 51.8622 107.364 51.9525 107.3 52.0416C107.288 52.0604 107.274 52.0791 107.259 52.0979C107.173 52.2175 107.088 52.3371 107.005 52.459L107.005 58.8833L105.726 58.8833C104.988 58.8833 104.38 59.4567 104.329 60.1918C104.305 60.5483 104.293 60.9071 104.293 61.2694C104.293 61.6317 104.305 61.9905 104.329 62.3469C104.38 63.0833 104.988 63.6555 105.726 63.6555L107.005 63.6555L107.005 70.0797C107.088 70.2017 107.173 70.3213 107.259 70.4409C107.272 70.4596 107.286 70.4772 107.299 70.496C107.378 70.6038 107.459 70.7105 107.54 70.8172C107.549 70.8301 107.56 70.843 107.569 70.8548C107.846 71.2124 108.139 71.5571 108.445 71.8901C108.46 71.9065 108.477 71.9241 108.492 71.9405C108.582 72.0378 108.675 72.134 108.767 72.229C108.78 72.2419 108.792 72.2548 108.805 72.2677C109.12 72.5878 109.449 72.8938 109.791 73.1857C109.813 73.2045 109.835 73.2233 109.858 73.242C109.947 73.3171 110.037 73.3921 110.129 73.4648C110.153 73.4847 110.178 73.5047 110.202 73.5246C110.312 73.6114 110.422 73.697 110.532 73.7814C110.538 73.7861 110.544 73.7896 110.548 73.7943C110.672 73.8869 110.797 73.9784 110.924 74.0675C110.924 74.0675 110.925 74.0675 110.926 74.0687C111.043 74.1519 111.163 74.2328 111.282 74.3137C111.305 74.3278 111.327 74.343 111.348 74.3571C111.443 74.4192 111.538 74.4814 111.633 74.5412C111.669 74.5646 111.706 74.5869 111.743 74.6104C111.852 74.6772 111.961 74.7429 112.073 74.8073C112.089 74.8167 112.104 74.8261 112.121 74.8355C112.252 74.9117 112.385 74.9856 112.518 75.0583C112.523 75.0606 112.528 75.063 112.532 75.0653C112.655 75.1321 112.78 75.1966 112.905 75.2599C112.932 75.274 112.96 75.2869 112.988 75.301C113.095 75.3537 113.203 75.4065 113.311 75.4569C113.346 75.4733 113.381 75.4898 113.416 75.5062C113.523 75.5554 113.632 75.6035 113.74 75.6504C113.767 75.6621 113.793 75.6738 113.82 75.6856C113.957 75.7442 114.096 75.8016 114.236 75.8568C114.244 75.8603 114.254 75.8638 114.262 75.8661C114.39 75.9154 114.517 75.9635 114.646 76.0104C114.685 76.0244 114.725 76.0385 114.764 76.0514L114.766 76.0514C114.877 76.0901 114.965 76.1769 115.006 76.2882C115.115 76.5896 115.27 76.8745 115.465 77.1336L115.977 77.8149C116.305 78.2522 116.484 78.7846 116.484 79.3321L116.484 93.7847C116.483 94.5574 117.109 95.1847 117.883 95.1847L122.044 95.1847C122.817 95.1847 123.444 94.5585 123.444 93.7847L123.444 79.3321C123.444 78.7846 123.622 78.2522 123.95 77.8149L124.463 77.1336C124.657 76.8745 124.811 76.5896 124.92 76.2894C124.961 76.178 125.049 76.0913 125.16 76.0526L125.163 76.0526C125.201 76.0385 125.241 76.0244 125.28 76.0104C125.409 75.9635 125.537 75.9166 125.665 75.8661C125.673 75.8626 125.682 75.8591 125.69 75.8568C125.83 75.8016 125.968 75.7442 126.107 75.6856C126.134 75.6738 126.159 75.6621 126.186 75.6504C126.295 75.6035 126.403 75.5554 126.51 75.5062C126.545 75.4898 126.58 75.4733 126.614 75.4569C126.722 75.4065 126.829 75.3537 126.937 75.301C126.965 75.2869 126.992 75.274 127.02 75.2599C127.145 75.1966 127.27 75.1321 127.393 75.0653C127.398 75.063 127.402 75.0606 127.407 75.0583C127.541 74.9856 127.673 74.9117 127.804 74.8355C127.821 74.8261 127.836 74.8167 127.853 74.8073C127.963 74.7429 128.073 74.6772 128.182 74.6104C128.22 74.5869 128.256 74.5635 128.293 74.5412C128.39 74.4814 128.483 74.4204 128.578 74.3583C128.601 74.3442 128.622 74.3301 128.644 74.3149C128.764 74.2352 128.883 74.1531 129 74.0698C129 74.0698 129.002 74.0698 129.003 74.0687C129.129 73.9795 129.254 73.8881 129.378 73.7954C129.384 73.7908 129.39 73.7872 129.394 73.7826C129.506 73.6981 129.616 73.6125 129.724 73.5258C129.75 73.5047 129.775 73.4836 129.802 73.4625C129.893 73.3898 129.981 73.3171 130.07 73.242C130.092 73.2233 130.114 73.2045 130.135 73.1857C130.477 72.8938 130.806 72.5878 131.122 72.2677C131.137 72.2524 131.151 72.2372 131.166 72.2219C131.255 72.1305 131.343 72.039 131.431 71.9452C131.447 71.9264 131.465 71.9089 131.481 71.8901C131.788 71.5583 132.079 71.2124 132.357 70.8548C132.367 70.8419 132.376 70.8301 132.385 70.8172C132.468 70.7105 132.548 70.6027 132.628 70.4936C132.641 70.476 132.654 70.4584 132.667 70.4397C132.754 70.3201 132.838 70.2005 132.921 70.0786L132.921 63.6543L134.201 63.6543C134.938 63.6543 135.547 63.0809 135.597 62.3457C135.622 61.9893 135.633 61.6305 135.633 61.2682C135.633 60.9059 135.622 60.5471 135.597 60.1906C135.547 59.4543 134.938 58.8821 134.201 58.8821L134.197 58.8821Z"/>
</mask>
<path d="M134.197 58.8821L132.918 58.8821L132.918 52.4578C132.835 52.3359 132.75 52.2151 132.663 52.0967C132.661 52.0932 132.658 52.0885 132.655 52.085C132.581 51.983 132.457 51.8176 132.38 51.7168C132.371 51.7051 132.362 51.6945 132.354 51.6828C132.077 51.3252 131.784 50.9805 131.478 50.6475C131.463 50.6311 131.447 50.6146 131.432 50.5982C131.344 50.5032 131.254 50.4094 131.164 50.3168C131.148 50.3016 131.134 50.2863 131.119 50.2711C130.804 49.951 130.475 49.645 130.133 49.353C130.115 49.3378 130.098 49.3237 130.08 49.3084C129.983 49.2264 129.886 49.1455 129.786 49.0657C129.765 49.0481 129.744 49.0317 129.722 49.0141C129.612 48.9274 129.502 48.8418 129.392 48.7574C129.386 48.7527 129.38 48.7492 129.376 48.7445C129.253 48.6518 129.127 48.5604 129 48.4713C129 48.4713 128.999 48.4713 128.998 48.4701C128.881 48.3868 128.761 48.3059 128.642 48.225C128.619 48.2098 128.597 48.1957 128.575 48.1816C128.48 48.1195 128.385 48.0574 128.288 47.9964C128.251 47.9741 128.216 47.9507 128.18 47.9284C128.071 47.8615 127.962 47.7947 127.85 47.7302C127.834 47.7208 127.819 47.7115 127.802 47.7021C127.671 47.6259 127.538 47.552 127.405 47.4793C127.4 47.477 127.395 47.4746 127.389 47.4711C127.266 47.4043 127.143 47.3409 127.018 47.2776C126.99 47.2636 126.961 47.2495 126.933 47.2354C126.829 47.1838 126.723 47.1322 126.618 47.083C126.581 47.0654 126.544 47.049 126.508 47.0314C126.4 46.9822 126.292 46.9341 126.184 46.8872C126.157 46.8755 126.131 46.8637 126.104 46.852C125.967 46.7934 125.828 46.7359 125.688 46.6808C125.68 46.6773 125.67 46.6738 125.662 46.6714C125.534 46.6222 125.407 46.5741 125.278 46.5272C125.239 46.5131 125.199 46.4991 125.16 46.4862C125.06 46.451 124.958 46.4158 124.856 46.383C124.812 46.3689 124.768 46.3549 124.724 46.3408C124.619 46.3068 124.512 46.2751 124.405 46.2435C124.369 46.2329 124.334 46.2212 124.297 46.2118C124.154 46.1708 124.01 46.1309 123.866 46.0946C123.855 46.0922 123.845 46.0899 123.833 46.0863C123.701 46.0523 123.568 46.0207 123.434 45.9902C123.39 45.9796 123.345 45.9714 123.301 45.9609C123.199 45.9386 123.096 45.9175 122.992 45.8976C122.943 45.8882 122.894 45.8788 122.845 45.8694C122.739 45.8495 122.634 45.8319 122.528 45.8143C122.485 45.8073 122.441 45.7991 122.398 45.7932C122.25 45.7698 122.101 45.7487 121.951 45.7299C121.943 45.7299 121.934 45.7276 121.925 45.7264C121.785 45.7088 121.644 45.6936 121.502 45.6795C121.454 45.6748 121.407 45.6713 121.359 45.6666C121.255 45.6572 121.149 45.649 121.044 45.642C120.991 45.6384 120.937 45.6349 120.884 45.6314C120.777 45.6255 120.672 45.6209 120.565 45.6162C120.517 45.6138 120.47 45.6126 120.422 45.6103C120.269 45.6056 120.116 45.6033 119.961 45.6033C119.808 45.6033 119.654 45.6056 119.501 45.6103C119.453 45.6115 119.404 45.6138 119.358 45.6162C119.251 45.6197 119.144 45.6255 119.039 45.6314C118.986 45.6349 118.932 45.6384 118.879 45.642C118.774 45.649 118.669 45.6572 118.564 45.6666C118.516 45.6713 118.469 45.6748 118.421 45.6795C118.279 45.6936 118.138 45.7088 117.997 45.7264C117.989 45.7264 117.98 45.7287 117.972 45.7299C117.822 45.7487 117.674 45.7709 117.525 45.7932C117.482 45.8003 117.438 45.8073 117.395 45.8143C117.289 45.8319 117.184 45.8507 117.078 45.8694C117.029 45.8788 116.98 45.8882 116.93 45.8976C116.827 45.9175 116.724 45.9386 116.622 45.9609C116.578 45.9703 116.533 45.9796 116.488 45.9902C116.355 46.0207 116.222 46.0523 116.09 46.0863C116.079 46.0887 116.069 46.091 116.057 46.0946C115.913 46.1321 115.768 46.1708 115.625 46.2118C115.589 46.2224 115.554 46.2329 115.518 46.2435C115.411 46.2751 115.304 46.308 115.199 46.3408C115.155 46.3549 115.111 46.3689 115.067 46.383C114.965 46.417 114.863 46.451 114.762 46.4862C114.724 46.5003 114.684 46.5131 114.645 46.5272C114.516 46.5741 114.388 46.621 114.261 46.6714C114.252 46.675 114.243 46.6785 114.235 46.6808C114.095 46.7359 113.957 46.7934 113.819 46.852C113.792 46.8637 113.766 46.8755 113.739 46.8872C113.63 46.9341 113.522 46.9822 113.415 47.0314C113.377 47.049 113.339 47.0666 113.3 47.0853C113.196 47.1346 113.093 47.185 112.99 47.2354C112.961 47.2495 112.933 47.2636 112.905 47.2776C112.781 47.341 112.657 47.4054 112.533 47.4711C112.529 47.4734 112.524 47.4758 112.518 47.4793C112.385 47.552 112.252 47.6259 112.121 47.7021C112.104 47.7115 112.089 47.7209 112.073 47.7302C111.962 47.7947 111.852 47.8604 111.743 47.9284C111.707 47.9507 111.672 47.9729 111.635 47.9964C111.539 48.0562 111.443 48.1183 111.348 48.1817C111.326 48.1957 111.303 48.211 111.281 48.225C111.162 48.3048 111.042 48.3868 110.925 48.4701C110.925 48.4701 110.924 48.4701 110.922 48.4713C110.796 48.5604 110.672 48.6518 110.547 48.7445C110.541 48.7492 110.535 48.7527 110.531 48.7574C110.419 48.8418 110.309 48.9274 110.201 49.0141C110.185 49.0282 110.167 49.0411 110.151 49.0552C110.048 49.1384 109.945 49.2229 109.844 49.3084C109.826 49.3237 109.809 49.3378 109.791 49.353C109.45 49.645 109.12 49.951 108.805 50.2711C108.788 50.2875 108.772 50.3051 108.754 50.3227C108.665 50.4141 108.576 50.5068 108.489 50.6006C108.474 50.6158 108.46 50.6322 108.445 50.6486C108.139 50.9805 107.846 51.3264 107.569 51.684C107.544 51.7156 107.521 51.7473 107.496 51.7778C107.426 51.8622 107.364 51.9525 107.3 52.0416C107.288 52.0604 107.274 52.0791 107.259 52.0979C107.173 52.2175 107.088 52.3371 107.005 52.459L107.005 58.8833L105.726 58.8833C104.988 58.8833 104.38 59.4567 104.329 60.1918C104.305 60.5483 104.293 60.9071 104.293 61.2694C104.293 61.6317 104.305 61.9905 104.329 62.3469C104.38 63.0833 104.988 63.6555 105.726 63.6555L107.005 63.6555L107.005 70.0797C107.088 70.2017 107.173 70.3213 107.259 70.4409C107.272 70.4596 107.286 70.4772 107.299 70.496C107.378 70.6038 107.459 70.7105 107.54 70.8172C107.549 70.8301 107.56 70.843 107.569 70.8548C107.846 71.2124 108.139 71.5571 108.445 71.8901C108.46 71.9065 108.477 71.9241 108.492 71.9405C108.582 72.0378 108.675 72.134 108.767 72.229C108.78 72.2419 108.792 72.2548 108.805 72.2677C109.12 72.5878 109.449 72.8938 109.791 73.1857C109.813 73.2045 109.835 73.2233 109.858 73.242C109.947 73.3171 110.037 73.3921 110.129 73.4648C110.153 73.4847 110.178 73.5047 110.202 73.5246C110.312 73.6114 110.422 73.697 110.532 73.7814C110.538 73.7861 110.544 73.7896 110.548 73.7943C110.672 73.8869 110.797 73.9784 110.924 74.0675C110.924 74.0675 110.925 74.0675 110.926 74.0687C111.043 74.1519 111.163 74.2328 111.282 74.3137C111.305 74.3278 111.327 74.343 111.348 74.3571C111.443 74.4192 111.538 74.4814 111.633 74.5412C111.669 74.5646 111.706 74.5869 111.743 74.6104C111.852 74.6772 111.961 74.7429 112.073 74.8073C112.089 74.8167 112.104 74.8261 112.121 74.8355C112.252 74.9117 112.385 74.9856 112.518 75.0583C112.523 75.0606 112.528 75.063 112.532 75.0653C112.655 75.1321 112.78 75.1966 112.905 75.2599C112.932 75.274 112.96 75.2869 112.988 75.301C113.095 75.3537 113.203 75.4065 113.311 75.4569C113.346 75.4733 113.381 75.4898 113.416 75.5062C113.523 75.5554 113.632 75.6035 113.74 75.6504C113.767 75.6621 113.793 75.6738 113.82 75.6856C113.957 75.7442 114.096 75.8016 114.236 75.8568C114.244 75.8603 114.254 75.8638 114.262 75.8661C114.39 75.9154 114.517 75.9635 114.646 76.0104C114.685 76.0244 114.725 76.0385 114.764 76.0514L114.766 76.0514C114.877 76.0901 114.965 76.1769 115.006 76.2882C115.115 76.5896 115.27 76.8745 115.465 77.1336L115.977 77.8149C116.305 78.2522 116.484 78.7846 116.484 79.3321L116.484 93.7847C116.483 94.5574 117.109 95.1847 117.883 95.1847L122.044 95.1847C122.817 95.1847 123.444 94.5585 123.444 93.7847L123.444 79.3321C123.444 78.7846 123.622 78.2522 123.95 77.8149L124.463 77.1336C124.657 76.8745 124.811 76.5896 124.92 76.2894C124.961 76.178 125.049 76.0913 125.16 76.0526L125.163 76.0526C125.201 76.0385 125.241 76.0244 125.28 76.0104C125.409 75.9635 125.537 75.9166 125.665 75.8661C125.673 75.8626 125.682 75.8591 125.69 75.8568C125.83 75.8016 125.968 75.7442 126.107 75.6856C126.134 75.6738 126.159 75.6621 126.186 75.6504C126.295 75.6035 126.403 75.5554 126.51 75.5062C126.545 75.4898 126.58 75.4733 126.614 75.4569C126.722 75.4065 126.829 75.3537 126.937 75.301C126.965 75.2869 126.992 75.274 127.02 75.2599C127.145 75.1966 127.27 75.1321 127.393 75.0653C127.398 75.063 127.402 75.0606 127.407 75.0583C127.541 74.9856 127.673 74.9117 127.804 74.8355C127.821 74.8261 127.836 74.8167 127.853 74.8073C127.963 74.7429 128.073 74.6772 128.182 74.6104C128.22 74.5869 128.256 74.5635 128.293 74.5412C128.39 74.4814 128.483 74.4204 128.578 74.3583C128.601 74.3442 128.622 74.3301 128.644 74.3149C128.764 74.2352 128.883 74.1531 129 74.0698C129 74.0698 129.002 74.0698 129.003 74.0687C129.129 73.9795 129.254 73.8881 129.378 73.7954C129.384 73.7908 129.39 73.7872 129.394 73.7826C129.506 73.6981 129.616 73.6125 129.724 73.5258C129.75 73.5047 129.775 73.4836 129.802 73.4625C129.893 73.3898 129.981 73.3171 130.07 73.242C130.092 73.2233 130.114 73.2045 130.135 73.1857C130.477 72.8938 130.806 72.5878 131.122 72.2677C131.137 72.2524 131.151 72.2372 131.166 72.2219C131.255 72.1305 131.343 72.039 131.431 71.9452C131.447 71.9264 131.465 71.9089 131.481 71.8901C131.788 71.5583 132.079 71.2124 132.357 70.8548C132.367 70.8419 132.376 70.8301 132.385 70.8172C132.468 70.7105 132.548 70.6027 132.628 70.4936C132.641 70.476 132.654 70.4584 132.667 70.4397C132.754 70.3201 132.838 70.2005 132.921 70.0786L132.921 63.6543L134.201 63.6543C134.938 63.6543 135.547 63.0809 135.597 62.3457C135.622 61.9893 135.633 61.6305 135.633 61.2682C135.633 60.9059 135.622 60.5471 135.597 60.1906C135.547 59.4543 134.938 58.8821 134.201 58.8821L134.197 58.8821Z" fill="#131111"/>
<path d="M134.197 58.8821L132.918 58.8821L132.918 52.4578C132.835 52.3359 132.75 52.2151 132.663 52.0967C132.661 52.0932 132.658 52.0885 132.655 52.085C132.581 51.983 132.457 51.8176 132.38 51.7168C132.371 51.7051 132.362 51.6945 132.354 51.6828C132.077 51.3252 131.784 50.9805 131.478 50.6475C131.463 50.6311 131.447 50.6146 131.432 50.5982C131.344 50.5032 131.254 50.4094 131.164 50.3168C131.148 50.3016 131.134 50.2863 131.119 50.2711C130.804 49.951 130.475 49.645 130.133 49.353C130.115 49.3378 130.098 49.3237 130.08 49.3084C129.983 49.2264 129.886 49.1455 129.786 49.0657C129.765 49.0481 129.744 49.0317 129.722 49.0141C129.612 48.9274 129.502 48.8418 129.392 48.7574C129.386 48.7527 129.38 48.7492 129.376 48.7445C129.253 48.6518 129.127 48.5604 129 48.4713C129 48.4713 128.999 48.4713 128.998 48.4701C128.881 48.3868 128.761 48.3059 128.642 48.225C128.619 48.2098 128.597 48.1957 128.575 48.1816C128.48 48.1195 128.385 48.0574 128.288 47.9964C128.251 47.9741 128.216 47.9507 128.18 47.9284C128.071 47.8615 127.962 47.7947 127.85 47.7302C127.834 47.7208 127.819 47.7115 127.802 47.7021C127.671 47.6259 127.538 47.552 127.405 47.4793C127.4 47.477 127.395 47.4746 127.389 47.4711C127.266 47.4043 127.143 47.3409 127.018 47.2776C126.99 47.2636 126.961 47.2495 126.933 47.2354C126.829 47.1838 126.723 47.1322 126.618 47.083C126.581 47.0654 126.544 47.049 126.508 47.0314C126.4 46.9822 126.292 46.9341 126.184 46.8872C126.157 46.8755 126.131 46.8637 126.104 46.852C125.967 46.7934 125.828 46.7359 125.688 46.6808C125.68 46.6773 125.67 46.6738 125.662 46.6714C125.534 46.6222 125.407 46.5741 125.278 46.5272C125.239 46.5131 125.199 46.4991 125.16 46.4862C125.06 46.451 124.958 46.4158 124.856 46.383C124.812 46.3689 124.768 46.3549 124.724 46.3408C124.619 46.3068 124.512 46.2751 124.405 46.2435C124.369 46.2329 124.334 46.2212 124.297 46.2118C124.154 46.1708 124.01 46.1309 123.866 46.0946C123.855 46.0922 123.845 46.0899 123.833 46.0863C123.701 46.0523 123.568 46.0207 123.434 45.9902C123.39 45.9796 123.345 45.9714 123.301 45.9609C123.199 45.9386 123.096 45.9175 122.992 45.8976C122.943 45.8882 122.894 45.8788 122.845 45.8694C122.739 45.8495 122.634 45.8319 122.528 45.8143C122.485 45.8073 122.441 45.7991 122.398 45.7932C122.25 45.7698 122.101 45.7487 121.951 45.7299C121.943 45.7299 121.934 45.7276 121.925 45.7264C121.785 45.7088 121.644 45.6936 121.502 45.6795C121.454 45.6748 121.407 45.6713 121.359 45.6666C121.255 45.6572 121.149 45.649 121.044 45.642C120.991 45.6384 120.937 45.6349 120.884 45.6314C120.777 45.6255 120.672 45.6209 120.565 45.6162C120.517 45.6138 120.47 45.6126 120.422 45.6103C120.269 45.6056 120.116 45.6033 119.961 45.6033C119.808 45.6033 119.654 45.6056 119.501 45.6103C119.453 45.6115 119.404 45.6138 119.358 45.6162C119.251 45.6197 119.144 45.6255 119.039 45.6314C118.986 45.6349 118.932 45.6384 118.879 45.642C118.774 45.649 118.669 45.6572 118.564 45.6666C118.516 45.6713 118.469 45.6748 118.421 45.6795C118.279 45.6936 118.138 45.7088 117.997 45.7264C117.989 45.7264 117.98 45.7287 117.972 45.7299C117.822 45.7487 117.674 45.7709 117.525 45.7932C117.482 45.8003 117.438 45.8073 117.395 45.8143C117.289 45.8319 117.184 45.8507 117.078 45.8694C117.029 45.8788 116.98 45.8882 116.93 45.8976C116.827 45.9175 116.724 45.9386 116.622 45.9609C116.578 45.9703 116.533 45.9796 116.488 45.9902C116.355 46.0207 116.222 46.0523 116.09 46.0863C116.079 46.0887 116.069 46.091 116.057 46.0946C115.913 46.1321 115.768 46.1708 115.625 46.2118C115.589 46.2224 115.554 46.2329 115.518 46.2435C115.411 46.2751 115.304 46.308 115.199 46.3408C115.155 46.3549 115.111 46.3689 115.067 46.383C114.965 46.417 114.863 46.451 114.762 46.4862C114.724 46.5003 114.684 46.5131 114.645 46.5272C114.516 46.5741 114.388 46.621 114.261 46.6714C114.252 46.675 114.243 46.6785 114.235 46.6808C114.095 46.7359 113.957 46.7934 113.819 46.852C113.792 46.8637 113.766 46.8755 113.739 46.8872C113.63 46.9341 113.522 46.9822 113.415 47.0314C113.377 47.049 113.339 47.0666 113.3 47.0853C113.196 47.1346 113.093 47.185 112.99 47.2354C112.961 47.2495 112.933 47.2636 112.905 47.2776C112.781 47.341 112.657 47.4054 112.533 47.4711C112.529 47.4734 112.524 47.4758 112.518 47.4793C112.385 47.552 112.252 47.6259 112.121 47.7021C112.104 47.7115 112.089 47.7209 112.073 47.7302C111.962 47.7947 111.852 47.8604 111.743 47.9284C111.707 47.9507 111.672 47.9729 111.635 47.9964C111.539 48.0562 111.443 48.1183 111.348 48.1817C111.326 48.1957 111.303 48.211 111.281 48.225C111.162 48.3048 111.042 48.3868 110.925 48.4701C110.925 48.4701 110.924 48.4701 110.922 48.4713C110.796 48.5604 110.672 48.6518 110.547 48.7445C110.541 48.7492 110.535 48.7527 110.531 48.7574C110.419 48.8418 110.309 48.9274 110.201 49.0141C110.185 49.0282 110.167 49.0411 110.151 49.0552C110.048 49.1384 109.945 49.2229 109.844 49.3084C109.826 49.3237 109.809 49.3378 109.791 49.353C109.45 49.645 109.12 49.951 108.805 50.2711C108.788 50.2875 108.772 50.3051 108.754 50.3227C108.665 50.4141 108.576 50.5068 108.489 50.6006C108.474 50.6158 108.46 50.6322 108.445 50.6486C108.139 50.9805 107.846 51.3264 107.569 51.684C107.544 51.7156 107.521 51.7473 107.496 51.7778C107.426 51.8622 107.364 51.9525 107.3 52.0416C107.288 52.0604 107.274 52.0791 107.259 52.0979C107.173 52.2175 107.088 52.3371 107.005 52.459L107.005 58.8833L105.726 58.8833C104.988 58.8833 104.38 59.4567 104.329 60.1918C104.305 60.5483 104.293 60.9071 104.293 61.2694C104.293 61.6317 104.305 61.9905 104.329 62.3469C104.38 63.0833 104.988 63.6555 105.726 63.6555L107.005 63.6555L107.005 70.0797C107.088 70.2017 107.173 70.3213 107.259 70.4409C107.272 70.4596 107.286 70.4772 107.299 70.496C107.378 70.6038 107.459 70.7105 107.54 70.8172C107.549 70.8301 107.56 70.843 107.569 70.8548C107.846 71.2124 108.139 71.5571 108.445 71.8901C108.46 71.9065 108.477 71.9241 108.492 71.9405C108.582 72.0378 108.675 72.134 108.767 72.229C108.78 72.2419 108.792 72.2548 108.805 72.2677C109.12 72.5878 109.449 72.8938 109.791 73.1857C109.813 73.2045 109.835 73.2233 109.858 73.242C109.947 73.3171 110.037 73.3921 110.129 73.4648C110.153 73.4847 110.178 73.5047 110.202 73.5246C110.312 73.6114 110.422 73.697 110.532 73.7814C110.538 73.7861 110.544 73.7896 110.548 73.7943C110.672 73.8869 110.797 73.9784 110.924 74.0675C110.924 74.0675 110.925 74.0675 110.926 74.0687C111.043 74.1519 111.163 74.2328 111.282 74.3137C111.305 74.3278 111.327 74.343 111.348 74.3571C111.443 74.4192 111.538 74.4814 111.633 74.5412C111.669 74.5646 111.706 74.5869 111.743 74.6104C111.852 74.6772 111.961 74.7429 112.073 74.8073C112.089 74.8167 112.104 74.8261 112.121 74.8355C112.252 74.9117 112.385 74.9856 112.518 75.0583C112.523 75.0606 112.528 75.063 112.532 75.0653C112.655 75.1321 112.78 75.1966 112.905 75.2599C112.932 75.274 112.96 75.2869 112.988 75.301C113.095 75.3537 113.203 75.4065 113.311 75.4569C113.346 75.4733 113.381 75.4898 113.416 75.5062C113.523 75.5554 113.632 75.6035 113.74 75.6504C113.767 75.6621 113.793 75.6738 113.82 75.6856C113.957 75.7442 114.096 75.8016 114.236 75.8568C114.244 75.8603 114.254 75.8638 114.262 75.8661C114.39 75.9154 114.517 75.9635 114.646 76.0104C114.685 76.0244 114.725 76.0385 114.764 76.0514L114.766 76.0514C114.877 76.0901 114.965 76.1769 115.006 76.2882C115.115 76.5896 115.27 76.8745 115.465 77.1336L115.977 77.8149C116.305 78.2522 116.484 78.7846 116.484 79.3321L116.484 93.7847C116.483 94.5574 117.109 95.1847 117.883 95.1847L122.044 95.1847C122.817 95.1847 123.444 94.5585 123.444 93.7847L123.444 79.3321C123.444 78.7846 123.622 78.2522 123.95 77.8149L124.463 77.1336C124.657 76.8745 124.811 76.5896 124.92 76.2894C124.961 76.178 125.049 76.0913 125.16 76.0526L125.163 76.0526C125.201 76.0385 125.241 76.0244 125.28 76.0104C125.409 75.9635 125.537 75.9166 125.665 75.8661C125.673 75.8626 125.682 75.8591 125.69 75.8568C125.83 75.8016 125.968 75.7442 126.107 75.6856C126.134 75.6738 126.159 75.6621 126.186 75.6504C126.295 75.6035 126.403 75.5554 126.51 75.5062C126.545 75.4898 126.58 75.4733 126.614 75.4569C126.722 75.4065 126.829 75.3537 126.937 75.301C126.965 75.2869 126.992 75.274 127.02 75.2599C127.145 75.1966 127.27 75.1321 127.393 75.0653C127.398 75.063 127.402 75.0606 127.407 75.0583C127.541 74.9856 127.673 74.9117 127.804 74.8355C127.821 74.8261 127.836 74.8167 127.853 74.8073C127.963 74.7429 128.073 74.6772 128.182 74.6104C128.22 74.5869 128.256 74.5635 128.293 74.5412C128.39 74.4814 128.483 74.4204 128.578 74.3583C128.601 74.3442 128.622 74.3301 128.644 74.3149C128.764 74.2352 128.883 74.1531 129 74.0698C129 74.0698 129.002 74.0698 129.003 74.0687C129.129 73.9795 129.254 73.8881 129.378 73.7954C129.384 73.7908 129.39 73.7872 129.394 73.7826C129.506 73.6981 129.616 73.6125 129.724 73.5258C129.75 73.5047 129.775 73.4836 129.802 73.4625C129.893 73.3898 129.981 73.3171 130.07 73.242C130.092 73.2233 130.114 73.2045 130.135 73.1857C130.477 72.8938 130.806 72.5878 131.122 72.2677C131.137 72.2524 131.151 72.2372 131.166 72.2219C131.255 72.1305 131.343 72.039 131.431 71.9452C131.447 71.9264 131.465 71.9089 131.481 71.8901C131.788 71.5583 132.079 71.2124 132.357 70.8548C132.367 70.8419 132.376 70.8301 132.385 70.8172C132.468 70.7105 132.548 70.6027 132.628 70.4936C132.641 70.476 132.654 70.4584 132.667 70.4397C132.754 70.3201 132.838 70.2005 132.921 70.0786L132.921 63.6543L134.201 63.6543C134.938 63.6543 135.547 63.0809 135.597 62.3457C135.622 61.9893 135.633 61.6305 135.633 61.2682C135.633 60.9059 135.622 60.5471 135.597 60.1906C135.547 59.4543 134.938 58.8821 134.201 58.8821L134.197 58.8821Z" stroke="white" stroke-width="1.32182" mask="url(#path-54-outside-2_5_1053)"/>
<path d="M118.619 82.573L116.479 82.573L116.479 81.449L118.619 81.449C118.928 81.449 119.181 81.7001 119.181 82.011C119.181 82.3208 118.929 82.573 118.619 82.573Z" fill="white"/>
<path d="M118.619 85.1534L116.479 85.1534L116.479 84.0305L118.619 84.0305C118.928 84.0305 119.181 84.2816 119.181 84.5925C119.181 84.9023 118.929 85.1546 118.619 85.1546L118.619 85.1534Z" fill="white"/>
<path d="M118.619 87.7325L116.479 87.7325L116.479 86.6084L118.619 86.6084C118.928 86.6084 119.181 86.8595 119.181 87.1704C119.181 87.4802 118.929 87.7325 118.619 87.7325Z" fill="white"/>
<path d="M118.619 90.3101L116.479 90.3101L116.479 89.186L118.619 89.186C118.928 89.186 119.181 89.4371 119.181 89.7481C119.181 90.0578 118.929 90.3101 118.619 90.3101Z" fill="white"/>
<path d="M118.619 92.8916L116.479 92.8916L116.479 91.7676L118.619 91.7676C118.928 91.7676 119.181 92.0187 119.181 92.3296C119.181 92.6394 118.929 92.8916 118.619 92.8916Z" fill="white"/>
<path d="M121.303 83.9212L123.442 83.9212L123.442 82.7971L121.303 82.7971C120.993 82.7971 120.741 83.0482 120.741 83.3592C120.741 83.6689 120.992 83.9212 121.303 83.9212Z" fill="white"/>
<path d="M121.303 86.5027L123.442 86.5027L123.442 85.3787L121.303 85.3787C120.993 85.3787 120.741 85.6298 120.741 85.9407C120.741 86.2505 120.992 86.5027 121.303 86.5027Z" fill="white"/>
<path d="M121.303 89.0806L123.442 89.0806L123.442 87.9565L121.303 87.9565C120.993 87.9565 120.741 88.2076 120.741 88.5186C120.741 88.8283 120.992 89.0806 121.303 89.0806Z" fill="white"/>
<path d="M121.303 91.6622L123.442 91.6622L123.442 90.5381L121.303 90.5381C120.993 90.5381 120.741 90.7892 120.741 91.1001C120.741 91.4099 120.992 91.6622 121.303 91.6622Z" fill="white"/>
<path d="M123.442 80.8191L123.442 81.3436L121.303 81.3436C120.993 81.3436 120.741 81.0925 120.741 80.7815C120.741 80.4706 120.992 80.2195 121.303 80.2195L123.442 80.2195L123.442 80.8191Z" fill="white"/>
</g>
<g clip-path="url(#clip0_5_1053)">
<path d="M188.739 6.79279L239.258 6.65894C239.911 6.6573 240.442 7.18532 240.444 7.83859L240.624 76.1436C240.626 76.7965 240.098 77.3274 239.445 77.329L188.926 77.4628C188.612 77.4637 188.311 77.3401 188.089 77.1186C187.867 76.8976 187.741 76.5971 187.74 76.2832L187.56 7.97817C187.559 7.66463 187.682 7.36338 187.904 7.14112C188.125 6.91886 188.426 6.7936 188.739 6.79238M188.745 9.15783L189.925 7.97244L190.105 76.2775L188.92 75.0982L239.439 74.9644L238.259 76.1502L238.078 7.84514L239.264 9.02439L188.745 9.15824V9.15783Z" fill="white"/>
<path d="M182.254 76.0202L182.021 7.54894V7.56941V7.56204H182.021C181.99 6.05698 181.859 3.65878 183.05 2.37229C183.238 2.16927 183.448 2.00268 183.669 1.86638C184.907 1.10382 186.738 1.22006 187.968 1.26713L187.918 1.26631L239.95 1.03137L239.902 1.03259C241.234 0.971605 243.472 0.782909 244.732 1.9642C245.991 3.14386 245.956 5.39184 245.986 6.73113C245.986 6.73849 245.986 6.74627 245.986 6.75364L246.236 76.8363C246.236 76.8404 246.236 76.8445 246.236 76.8486V76.8584C246.227 78.2006 246.284 80.3626 245.203 81.5636C245.01 81.7776 244.793 81.952 244.565 82.0928C243.447 82.7805 241.857 82.7395 240.806 82.7391H240.811L189.683 82.927L189.731 82.9262L189.716 82.927H189.715C187.895 83.0052 185.179 83.2045 183.691 81.8394C182.176 80.4502 182.259 77.763 182.253 76.0214M184.619 76.0124C184.627 78.2669 184.723 79.5759 185.29 80.0957C185.878 80.6352 187.296 80.6622 189.614 80.5628H189.614L189.629 80.5624C189.645 80.5616 189.66 80.5611 189.676 80.5611L240.803 80.3733H240.808C242.128 80.3741 242.908 80.3344 243.324 80.0781C243.379 80.0442 243.417 80.0114 243.445 79.9803C243.776 79.6127 243.858 78.6386 243.87 76.8421V76.8327V76.8445L243.62 6.76183V6.78434C243.579 4.95059 243.471 4.0243 243.114 3.68948C242.759 3.3563 241.836 3.31127 240.008 3.39477C239.992 3.39559 239.976 3.396 239.959 3.396L187.927 3.63095C187.91 3.63095 187.894 3.63095 187.877 3.63013C186.334 3.5716 185.391 3.58265 184.908 3.87981C184.853 3.91338 184.813 3.94694 184.784 3.97887C184.405 4.3886 184.343 5.50358 184.384 7.51333V7.52029C184.384 7.52725 184.384 7.53421 184.384 7.54076L184.617 76.012L184.619 76.0124Z" fill="white"/>
<path d="M198.788 29.9113L198.698 25.0506L198.7 25.0838C198.669 24.4202 198.561 23.1452 199.124 22.2443C199.229 22.0769 199.358 21.9164 199.516 21.772C199.597 21.6987 199.681 21.6332 199.766 21.5751C199.837 21.5264 199.91 21.483 199.982 21.4437C200.885 20.9554 202.206 20.9992 203.009 21.0045H202.998L225.355 20.9271H225.321C226.025 20.9054 227.298 20.8227 228.173 21.3205C228.29 21.3868 228.405 21.4654 228.516 21.5591C228.7 21.7155 228.846 21.8935 228.96 22.0781C229.455 22.8743 229.435 23.9794 229.445 24.5578C229.445 24.5606 229.445 24.5639 229.445 24.5668L229.49 29.425V29.4102C229.502 29.9559 229.562 31.014 229.11 31.8134C229.011 31.9881 228.885 32.1584 228.726 32.3131C228.637 32.4003 228.543 32.4765 228.447 32.5432C228.366 32.6001 228.284 32.65 228.202 32.6942C227.438 33.1072 226.38 33.1531 225.737 33.1956C225.713 33.1973 225.689 33.1981 225.665 33.1985L202.843 33.3323C202.833 33.3323 202.822 33.3323 202.81 33.3323H202.805C202.099 33.3168 200.835 33.3287 199.996 32.8068C199.926 32.7634 199.857 32.7155 199.789 32.6623C199.582 32.4986 199.418 32.3086 199.29 32.1089L200.287 31.4724L199.276 32.0868L199.29 32.1089C198.827 31.3844 198.812 30.4303 198.788 29.9506C198.787 29.9379 198.787 29.9252 198.787 29.9125M201.153 29.8679L201.151 29.8298C201.187 30.5277 201.232 30.7512 201.285 30.8351L201.299 30.8576L200.289 31.4716L201.285 30.8351C201.285 30.8351 201.274 30.8195 201.255 30.8044C201.25 30.7999 201.246 30.7978 201.246 30.7982C201.402 30.8953 201.851 30.946 202.859 30.9677H202.864H202.832L225.654 30.8339L225.582 30.8363C226.436 30.7794 226.874 30.7254 227.08 30.6141C227.088 30.6096 227.092 30.6067 227.092 30.6067C227.092 30.6067 227.087 30.6104 227.078 30.619C227.062 30.6349 227.054 30.6472 227.054 30.6484C227.114 30.542 227.145 30.2584 227.128 29.4618C227.128 29.4569 227.128 29.452 227.128 29.4471L227.083 24.5889V24.5979C227.068 23.7559 227.025 23.4407 226.954 23.3265C226.955 23.3274 226.964 23.3429 226.986 23.3617C226.999 23.3724 227.007 23.3769 227.007 23.3769C226.85 23.2877 226.41 23.2598 225.398 23.2918C225.387 23.2918 225.376 23.2922 225.365 23.2922L203.007 23.3695H202.995C201.913 23.3626 201.348 23.3941 201.108 23.5242C201.102 23.5275 201.099 23.5292 201.099 23.5296C201.099 23.5296 201.103 23.5267 201.109 23.521C201.123 23.5087 201.129 23.4989 201.13 23.4981C201.049 23.6274 201.017 23.995 201.063 24.9741C201.063 24.9851 201.063 24.9962 201.063 25.0072L201.153 29.8679H201.153Z" fill="white"/>
<path d="M212.707 39.5781L209.1 53.1634L207.992 51.678L213.318 51.8323C213.687 51.8429 214.03 52.0259 214.245 52.3263C214.46 52.6272 214.522 53.0107 214.413 53.364L210.673 65.4475L208.572 64.4233L220.174 47.7113L221.126 49.5679L216.385 49.4885C216.019 49.4824 215.676 49.3072 215.457 49.0137C215.238 48.7207 215.167 48.3425 215.265 47.9896L217.783 38.9183L218.929 40.4172L211.57 40.4573L212.707 39.5781ZM210.421 38.9711C210.558 38.4554 211.024 38.0948 211.558 38.0919L218.917 38.0518C219.287 38.0497 219.637 38.2216 219.863 38.5159C220.088 38.8102 220.162 39.1934 220.063 39.5503L217.545 48.622L216.425 47.1235L221.166 47.2029C221.603 47.2103 222 47.4575 222.199 47.8459C222.398 48.2344 222.367 48.701 222.118 49.0596L210.516 65.772C210.183 66.2514 209.551 66.4163 209.026 66.1605C208.502 65.9051 208.242 65.305 208.415 64.7479L212.155 52.6644L213.25 54.1961L207.924 54.0418C207.563 54.0312 207.226 53.8564 207.01 53.567C206.794 53.2776 206.722 52.9051 206.815 52.556L210.422 38.9707L210.421 38.9711Z" fill="white"/>
<path d="M199.909 42.0604C199.915 44.1365 198.236 45.8241 196.16 45.8298C194.084 45.8351 192.396 44.1565 192.391 42.0805C192.385 40.0044 194.064 38.3168 196.14 38.311C198.216 38.3057 199.904 39.9843 199.909 42.0604ZM197.544 42.0665C197.542 41.2966 196.916 40.674 196.147 40.6761C195.377 40.6781 194.754 41.304 194.756 42.0739C194.758 42.8438 195.384 43.4664 196.154 43.4644C196.924 43.4623 197.546 42.8365 197.544 42.0665Z" fill="white"/>
</g>
<defs>
<clipPath id="clip0_5_1053">
<rect width="64.2348" height="82" fill="white" transform="translate(182 0.983643)"/>
</clipPath>
</defs>
</svg>
