<svg width="40" height="41" viewBox="0 0 40 41" fill="none" xmlns="http://www.w3.org/2000/svg">
<g id="Group 39" filter="url(#filter0_d_5_69)">
<g id="Group 8">
<path id="Vector" d="M23.5059 5.08677C23.6118 5.08677 23.6647 5.03385 23.7705 4.98093L25.8344 2.917C25.9403 2.81116 25.9403 2.54655 25.8344 2.44071C25.7286 2.33487 25.464 2.33487 25.3582 2.44071L23.2942 4.50463C23.1884 4.61048 23.1884 4.87508 23.2942 4.98093C23.3471 5.08677 23.453 5.08677 23.5059 5.08677Z" fill="white"/>
<path id="Vector_2" d="M24.5078 7.94448C24.5078 8.15616 24.6666 8.26201 24.8253 8.26201H27.736C27.9477 8.26201 28.0535 8.10324 28.0535 7.94448C28.0535 7.7328 27.8948 7.62695 27.736 7.62695H24.8253C24.6666 7.62695 24.5078 7.7328 24.5078 7.94448Z" fill="white"/>
<path id="Vector_3" d="M25.5698 13.5555C25.6757 13.5555 25.7286 13.5026 25.8344 13.4497C25.9403 13.3438 25.9403 13.0792 25.8344 12.9734L23.7705 10.9095C23.6647 10.8036 23.4001 10.8036 23.2942 10.9095C23.1884 11.0153 23.1884 11.2799 23.2942 11.3858L25.3582 13.4497C25.4111 13.5026 25.5169 13.5555 25.5698 13.5555Z" fill="white"/>
<path id="Vector_4" d="M20.6458 15.4079V12.4972C20.6458 12.2855 20.487 12.1797 20.3283 12.1797C20.1166 12.1797 20.0107 12.3385 20.0107 12.4972V15.4079C20.0107 15.6196 20.1695 15.7254 20.3283 15.7254C20.487 15.7254 20.6458 15.5666 20.6458 15.4079Z" fill="white"/>
<path id="Vector_5" d="M16.8904 10.9081L14.8265 12.9721C14.7206 13.0779 14.7206 13.3425 14.8265 13.4484C14.8794 13.5013 14.9852 13.5542 15.0911 13.5542C15.1969 13.5542 15.2498 13.5013 15.3557 13.4484L17.4196 11.3844C17.5254 11.2786 17.5254 11.014 17.4196 10.9081C17.2608 10.7494 17.0491 10.7494 16.8904 10.9081Z" fill="white"/>
<path id="Vector_6" d="M12.8703 8.26201H15.7809C15.9926 8.26201 16.0985 8.10324 16.0985 7.94448C16.0985 7.78572 15.9397 7.62695 15.7809 7.62695H12.8703C12.6586 7.62695 12.5527 7.78572 12.5527 7.94448C12.5527 8.10324 12.7115 8.26201 12.8703 8.26201Z" fill="white"/>
<path id="Vector_7" d="M16.8912 4.98093C16.9441 5.03385 17.0499 5.08677 17.1558 5.08677C17.2616 5.08677 17.3145 5.03385 17.4204 4.98093C17.5262 4.87508 17.5262 4.61048 17.4204 4.50463L15.3565 2.44071C15.2506 2.33487 14.986 2.33487 14.8802 2.44071C14.7743 2.54655 14.7743 2.81116 14.8802 2.917L16.8912 4.98093Z" fill="white"/>
<path id="Vector_8" d="M20.3283 3.76447C20.54 3.76447 20.6458 3.6057 20.6458 3.44694V0.536277C20.6458 0.324592 20.487 0.21875 20.3283 0.21875C20.1166 0.21875 20.0107 0.377513 20.0107 0.536277V3.44694C20.0107 3.6057 20.1695 3.76447 20.3283 3.76447Z" fill="white"/>
<path id="Vector_9" d="M20.335 11.2794C22.1873 11.2794 23.669 9.7976 23.669 7.94536C23.669 6.09312 22.1343 4.61133 20.335 4.61133C18.5357 4.61133 17.001 6.09312 17.001 7.94536C17.001 9.7976 18.4828 11.2794 20.335 11.2794Z" fill="white"/>
<path id="Vector_10" d="M24.6177 21.3333H31.4445L30.3861 18.4755C30.3332 18.3168 30.1744 18.2109 29.9627 18.2109H24.1943L24.6177 21.3333Z" fill="white"/>
<path id="Vector_11" d="M16.6797 21.3352H23.9828L23.5065 18.2129H17.156L16.6797 21.3352Z" fill="white"/>
<path id="Vector_12" d="M24.51 25.2497L24.0337 22.0215H16.6247L16.1484 25.2497H24.51Z" fill="white"/>
<path id="Vector_13" d="M25.1989 25.2497H32.8725L31.7083 22.0215H24.7227L25.1989 25.2497Z" fill="white"/>
<path id="Vector_14" d="M33.1372 25.9375H25.252L25.7812 29.6949H33.8781C34.0369 29.6949 34.1427 29.642 34.2486 29.4832C34.3544 29.3774 34.3544 29.2186 34.3015 29.1128L33.1372 25.9375Z" fill="white"/>
<path id="Vector_15" d="M24.563 25.9375H16.0956L15.5664 29.6949H25.0922L24.563 25.9375Z" fill="white"/>
<path id="Vector_16" d="M15.4075 25.9395H7.52227L6.358 29.1147C6.30508 29.2735 6.30508 29.3793 6.41092 29.4852C6.51677 29.591 6.62261 29.6969 6.78137 29.6969H14.8783L15.4075 25.9395Z" fill="white"/>
<path id="Vector_17" d="M15.936 22.0234H8.9504L7.78613 25.2516H15.4597L15.936 22.0234Z" fill="white"/>
<path id="Vector_18" d="M16.468 18.2129H10.6996C10.5408 18.2129 10.382 18.3187 10.2762 18.4775L9.21777 21.3352H16.0446L16.468 18.2129Z" fill="white"/>
</g>
</g>
<defs>
<filter id="filter0_d_5_69" x="0.775683" y="0.21875" width="39.1078" height="40.5736" filterUnits="userSpaceOnUse" color-interpolation-filters="sRGB">
<feFlood flood-opacity="0" result="BackgroundImageFix"/>
<feColorMatrix in="SourceAlpha" type="matrix" values="0 0 0 0 0 0 0 0 0 0 0 0 0 0 0 0 0 0 127 0" result="hardAlpha"/>
<feOffset dy="5.54756"/>
<feGaussianBlur stdDeviation="2.77378"/>
<feComposite in2="hardAlpha" operator="out"/>
<feColorMatrix type="matrix" values="0 0 0 0 0 0 0 0 0 0 0 0 0 0 0 0 0 0 0.25 0"/>
<feBlend mode="normal" in2="BackgroundImageFix" result="effect1_dropShadow_5_69"/>
<feBlend mode="normal" in="SourceGraphic" in2="effect1_dropShadow_5_69" result="shape"/>
</filter>
</defs>
</svg>
