<svg width="44" height="64" viewBox="0 0 44 64" fill="none" xmlns="http://www.w3.org/2000/svg">
<path d="M2.71012 17.9973L2.62826 19.0732H3.70723H10.8674H11.7462L11.8591 18.2018C12.2058 15.5278 13.3042 13.4584 15.1319 11.9193C16.9484 10.3896 19.383 9.57991 22.5329 9.57991C25.8065 9.57991 28.1533 10.3969 29.7318 11.8826L29.7371 11.8875L29.7424 11.8924C31.3868 13.3959 32.233 15.3942 32.233 17.9927C32.233 21.0191 31.1127 23.145 28.9201 24.5473C26.626 25.9602 23.1164 26.7545 18.2635 26.8078H16.3381H15.3381V27.8078V33.9222V34.9222H16.3381H18.1885C23.5297 34.9222 27.3451 35.8008 29.7859 37.4117C32.1155 38.9492 33.3593 41.4832 33.3593 45.2658C33.3593 48.1429 32.4512 50.4259 30.6755 52.2016C28.9935 53.8836 26.4455 54.805 22.8547 54.805C19.2872 54.805 16.5431 53.8412 14.515 52.0063C12.4547 50.1422 11.2447 47.7424 10.8953 44.7477L10.7921 43.8636H9.90201H2.82227H1.74076L1.82533 44.9418C2.27191 50.6357 4.40999 55.1426 8.30088 58.3469L8.30085 58.3469L8.30772 58.3524C12.1683 61.475 17.0712 62.9998 22.9352 62.9998C26.967 62.9998 30.4801 62.2818 33.4388 60.8025C36.3814 59.3312 38.6289 57.299 40.1327 54.6963L40.1327 54.6963L40.1374 54.688C41.6234 52.059 42.3586 49.125 42.3586 45.9095C42.3586 41.6646 41.2948 38.1258 39.079 35.3852C37.3935 33.3004 35.2517 31.7556 32.6795 30.7421C34.8617 29.8317 36.708 28.415 38.2016 26.4963C40.2825 23.8927 41.3127 20.8002 41.3127 17.2687C41.3127 14.2573 40.5723 11.5274 39.0758 9.10686C37.623 6.6697 35.4571 4.77851 32.6307 3.4197C29.8349 1.99579 26.5379 1.30469 22.7743 1.30469C17.1299 1.30469 12.4386 2.74648 8.7887 5.71205C5.11653 8.6957 3.10366 12.825 2.71012 17.9973Z" fill="#F9A41A" stroke="#F9A41A" stroke-width="2"/>
</svg>
