<svg width="84" height="84" viewBox="0 0 84 84" fill="none" xmlns="http://www.w3.org/2000/svg">
<rect width="83.2138" height="83.2138" rx="8.6354" fill="#EFAC3F"/>
<path d="M34.053 56.6337H49.1064V50.9887C49.1064 48.9188 48.3694 47.1469 46.8954 45.673C45.4214 44.199 43.6495 43.462 41.5797 43.462C39.5099 43.462 37.738 44.199 36.264 45.673C34.79 47.1469 34.053 48.9188 34.053 50.9887V56.6337ZM26.5264 60.397V56.6337H30.2897V50.9887C30.2897 49.0756 30.7366 47.2802 31.6304 45.6024C32.5242 43.9246 33.7708 42.5839 35.3702 41.5803C33.7708 40.5768 32.5242 39.2361 31.6304 37.5583C30.7366 35.8805 30.2897 34.085 30.2897 32.172V26.527H26.5264V22.7637H56.633V26.527H52.8697V32.172C52.8697 34.085 52.4228 35.8805 51.529 37.5583C50.6352 39.2361 49.3886 40.5768 47.7892 41.5803C49.3886 42.5839 50.6352 43.9246 51.529 45.6024C52.4228 47.2802 52.8697 49.0756 52.8697 50.9887V56.6337H56.633V60.397H26.5264Z" fill="white"/>
</svg>
