<svg width="43" height="63" viewBox="0 0 43 63" fill="none" xmlns="http://www.w3.org/2000/svg">
<path d="M1.49881 54.5597L1.125 54.86V55.3394V60.5688V61.5688H2.125H40.8222H41.8222V60.5688V54.4544V53.4544H40.8222H15.9642C20.2563 49.9406 23.8637 46.8161 26.7831 44.082L26.7832 44.082L26.7892 44.0763C30.2314 40.798 33.2866 37.0323 35.956 32.7832C38.7253 28.4073 40.1327 23.8804 40.1327 19.2166C40.1327 13.6372 38.4227 9.14112 34.9112 5.8581C31.4647 2.58553 26.8249 1 21.1116 1C15.477 1 10.7924 2.70926 7.14713 6.18368C3.47839 9.68045 1.58824 14.5951 1.36699 20.79L1.33 21.8257H2.36635H9.44609H10.4047L10.4452 20.8679C10.5991 17.2262 11.618 14.4355 13.4137 12.3966C15.2266 10.3453 17.7736 9.27523 21.192 9.27523C24.7798 9.27523 27.1409 10.2461 28.5428 11.9645L28.5519 11.9757L28.5613 11.9865C30.075 13.7368 30.8921 16.2125 30.8921 19.5384C30.8921 22.9863 29.645 26.5722 27.0481 30.3117L27.0465 30.3141C24.4668 34.0521 21.2741 37.6695 17.4618 41.1644C13.6209 44.6317 8.30218 49.0956 1.49881 54.5597Z" fill="#F9A41A" stroke="#F9A41A" stroke-width="2"/>
</svg>
